<svg xmlns="http://www.w3.org/2000/svg" version="1.1" xmlns:xlink="http://www.w3.org/1999/xlink" xmlns:svgjs="http://svgjs.com/svgjs" width="1920" height="1080" preserveAspectRatio="none" viewBox="0 0 1920 1080"><g mask="url(&quot;#SvgjsMask2329&quot;)" fill="none"><rect width="1920" height="1080" x="0" y="0" fill="rgba(5, 56, 107, 1)"></rect><use xlink:href="#SvgjsG2335" transform="translate(0, 0)" fill="rgba(27, 209, 117, 1)"></use><use xlink:href="#SvgjsG2335" transform="translate(0, 713)" fill="rgba(55, 150, 131, 1)"></use><use xlink:href="#SvgjsG2335" transform="translate(713, 0)" fill="rgba(27, 209, 117, 1)"></use><use xlink:href="#SvgjsG2335" transform="translate(713, 713)" fill="rgba(27, 209, 117, 1)"></use><use xlink:href="#SvgjsG2335" transform="translate(1426, 0)" fill="rgba(55, 150, 131, 1)"></use><use xlink:href="#SvgjsG2335" transform="translate(1426, 713)" fill="rgba(55, 150, 131, 1)"></use></g><defs><mask id="SvgjsMask2329"><rect width="1920" height="1080" fill="#ffffff"></rect></mask><g id="SvgjsG2332"><path d="M12.39 10.11c-1.09 2.7-4.16 4-6.85 2.91-2.7-1.09-4-4.16-2.91-6.86 0.52-1.28 1.56-3.03 3.95-4.04 4.37-1.86 5.24-3.58 5.24-3.58 2.23 5.25 1.66 8.87 0.57 11.57z"></path><path d="M5.02 13.2L3.85 12.18l4.22-6.54z"></path><path d="M8.07 5.64l1.51 0.61-4.34 10.76-1.51-0.61z"></path></g><g id="SvgjsG2330"><path d="M9.31 12.5S7.75 11.5 5.28 12.54C3.03 13.5 2.13 14.65 2.13 14.65L-1.73 5.54s0.89-1.15 3.14-2.12C3.87 2.36 5.44 3.39 5.44 3.39L9.31 12.5z m1-0.43s0.37-1.82 2.83-2.86c2.26-0.96 3.71-0.8 3.71-0.8L12.98-0.7s-1.45-0.16-3.71 0.78c-2.47 1.03-2.82 2.88-2.82 2.88l3.86 9.11z"></path><path d="M11.03 15.11S8.64 13.61 6.18 14.65c-2.26 0.96-3.15 2.11-3.15 2.11l-0.46-1.09s0.89-1.15 3.14-2.13c2.46-1.06 4.86 0.48 4.86 0.48L11.03 15.11z m0 0s0.58-2.77 3.04-3.81c2.26-0.96 3.71-0.8 3.71-0.8l-0.46-1.09s-1.45-0.16-3.72 0.78c-2.47 1.03-3.03 3.83-3.03 3.83l0.46 1.09z"></path></g><g id="SvgjsG2331"><path d="M-0.76 3.97l5.73 13.5 11.85-5.03L11.09-1.06l-11.85 5.03z m8.49 10.38L5.72 15.21 4.87 13.2 6.88 12.35l0.85 2z m-1.3-3.06L4.42 12.14 3.57 10.14 5.58 9.29l0.85 2z m4.77 1.59L9.19 13.73 8.34 11.73l2.01-0.85 0.85 2z m-1.3-3.06L7.89 10.67 7.04 8.66l2-0.85 0.86 2.01z m4.77 1.59L12.67 12.26l-2.16-5.07 2.01-0.85 2.15 5.07z m-2.91-7.08l-9.01 3.83L1.39 4.94l9-3.82L11.76 4.33z"></path></g><g id="SvgjsG2333"><path d="M13.35 11.2L5.88 14.36 1.74 4.61l7.47-3.17 4.14 9.76z m-3.13 3a0.46 0.46 0 1 1-0.36-0.84 0.46 0.46 0 0 1 0.36 0.84zM4.38 2.24l1.29-0.54c0.18-0.08 0.32 0.25 0.14 0.32l-1.29 0.55c-0.18 0.08-0.32-0.25-0.14-0.33zM8.25-0.35L1.12 2.68C0.81 2.8 0.7 3.23 0.87 3.63L5.98 15.67c0.17 0.39 0.55 0.61 0.86 0.49l7.13-3.03c0.31-0.13 0.42-0.56 0.26-0.95L9.11 0.13c-0.17-0.4-0.56-0.61-0.86-0.48z" fill-rule="evenodd"></path></g><g id="SvgjsG2334"><path d="M2.24 14.93L6.28 3.96l10.7 4.71z"></path><path d="M1.76 9.07L4.87 0.64l8.23 3.61z m4.58-1.4l2.57-1.09 3.5 8.24L9.84 15.91z"></path></g><g id="SvgjsG2335"><use xlink:href="#SvgjsG2330" transform="translate(0, 0) scale(2.3)" fill="rgba(27, 209, 117, 1)"></use><use xlink:href="#SvgjsG2330" transform="translate(0, 71.3) scale(2.3)" fill="rgba(55, 150, 131, 1)"></use><use xlink:href="#SvgjsG2331" transform="translate(0, 142.6) scale(2.3)" fill="rgba(55, 150, 131, 1)"></use><use xlink:href="#SvgjsG2330" transform="translate(0, 213.89999999999998) scale(2.3)" fill="rgba(27, 209, 117, 1)"></use><use xlink:href="#SvgjsG2331" transform="translate(0, 285.2) scale(2.3)" fill="rgba(27, 209, 117, 1)"></use><use xlink:href="#SvgjsG2330" transform="translate(0, 356.5) scale(2.3)" fill="rgba(55, 150, 131, 1)"></use><use xlink:href="#SvgjsG2330" transform="translate(0, 427.79999999999995) scale(2.3)" fill="rgba(27, 209, 117, 1)"></use><use xlink:href="#SvgjsG2332" transform="translate(0, 499.09999999999997) scale(2.3)" fill="rgba(27, 209, 117, 1)"></use><use xlink:href="#SvgjsG2333" transform="translate(0, 570.4) scale(2.3)" fill="rgba(55, 150, 131, 1)"></use><use xlink:href="#SvgjsG2334" transform="translate(0, 641.6999999999999) scale(2.3)" fill="rgba(55, 150, 131, 1)"></use><use xlink:href="#SvgjsG2332" transform="translate(71.3, 0) scale(2.3)" fill="rgba(55, 150, 131, 1)"></use><use xlink:href="#SvgjsG2330" transform="translate(71.3, 71.3) scale(2.3)" fill="rgba(55, 150, 131, 1)"></use><use xlink:href="#SvgjsG2333" transform="translate(71.3, 142.6) scale(2.3)" fill="rgba(55, 150, 131, 1)"></use><use xlink:href="#SvgjsG2332" transform="translate(71.3, 213.89999999999998) scale(2.3)" fill="rgba(55, 150, 131, 1)"></use><use xlink:href="#SvgjsG2334" transform="translate(71.3, 285.2) scale(2.3)" fill="rgba(27, 209, 117, 1)"></use><use xlink:href="#SvgjsG2334" transform="translate(71.3, 356.5) scale(2.3)" fill="rgba(55, 150, 131, 1)"></use><use xlink:href="#SvgjsG2332" transform="translate(71.3, 427.79999999999995) scale(2.3)" fill="rgba(55, 150, 131, 1)"></use><use xlink:href="#SvgjsG2331" transform="translate(71.3, 499.09999999999997) scale(2.3)" fill="rgba(27, 209, 117, 1)"></use><use xlink:href="#SvgjsG2331" transform="translate(71.3, 570.4) scale(2.3)" fill="rgba(27, 209, 117, 1)"></use><use xlink:href="#SvgjsG2332" transform="translate(71.3, 641.6999999999999) scale(2.3)" fill="rgba(55, 150, 131, 1)"></use><use xlink:href="#SvgjsG2334" transform="translate(142.6, 0) scale(2.3)" fill="rgba(27, 209, 117, 1)"></use><use xlink:href="#SvgjsG2331" transform="translate(142.6, 71.3) scale(2.3)" fill="rgba(55, 150, 131, 1)"></use><use xlink:href="#SvgjsG2333" transform="translate(142.6, 142.6) scale(2.3)" fill="rgba(27, 209, 117, 1)"></use><use xlink:href="#SvgjsG2334" transform="translate(142.6, 213.89999999999998) scale(2.3)" fill="rgba(27, 209, 117, 1)"></use><use xlink:href="#SvgjsG2331" transform="translate(142.6, 285.2) scale(2.3)" fill="rgba(55, 150, 131, 1)"></use><use xlink:href="#SvgjsG2334" transform="translate(142.6, 356.5) scale(2.3)" fill="rgba(55, 150, 131, 1)"></use><use xlink:href="#SvgjsG2333" transform="translate(142.6, 427.79999999999995) scale(2.3)" fill="rgba(55, 150, 131, 1)"></use><use xlink:href="#SvgjsG2334" transform="translate(142.6, 499.09999999999997) scale(2.3)" fill="rgba(55, 150, 131, 1)"></use><use xlink:href="#SvgjsG2331" transform="translate(142.6, 570.4) scale(2.3)" fill="rgba(55, 150, 131, 1)"></use><use xlink:href="#SvgjsG2334" transform="translate(142.6, 641.6999999999999) scale(2.3)" fill="rgba(55, 150, 131, 1)"></use><use xlink:href="#SvgjsG2333" transform="translate(213.89999999999998, 0) scale(2.3)" fill="rgba(27, 209, 117, 1)"></use><use xlink:href="#SvgjsG2333" transform="translate(213.89999999999998, 71.3) scale(2.3)" fill="rgba(55, 150, 131, 1)"></use><use xlink:href="#SvgjsG2332" transform="translate(213.89999999999998, 142.6) scale(2.3)" fill="rgba(55, 150, 131, 1)"></use><use xlink:href="#SvgjsG2332" transform="translate(213.89999999999998, 213.89999999999998) scale(2.3)" fill="rgba(27, 209, 117, 1)"></use><use xlink:href="#SvgjsG2333" transform="translate(213.89999999999998, 285.2) scale(2.3)" fill="rgba(55, 150, 131, 1)"></use><use xlink:href="#SvgjsG2333" transform="translate(213.89999999999998, 356.5) scale(2.3)" fill="rgba(27, 209, 117, 1)"></use><use xlink:href="#SvgjsG2333" transform="translate(213.89999999999998, 427.79999999999995) scale(2.3)" fill="rgba(55, 150, 131, 1)"></use><use xlink:href="#SvgjsG2330" transform="translate(213.89999999999998, 499.09999999999997) scale(2.3)" fill="rgba(55, 150, 131, 1)"></use><use xlink:href="#SvgjsG2331" transform="translate(213.89999999999998, 570.4) scale(2.3)" fill="rgba(55, 150, 131, 1)"></use><use xlink:href="#SvgjsG2332" transform="translate(213.89999999999998, 641.6999999999999) scale(2.3)" fill="rgba(27, 209, 117, 1)"></use><use xlink:href="#SvgjsG2332" transform="translate(285.2, 0) scale(2.3)" fill="rgba(27, 209, 117, 1)"></use><use xlink:href="#SvgjsG2334" transform="translate(285.2, 71.3) scale(2.3)" fill="rgba(27, 209, 117, 1)"></use><use xlink:href="#SvgjsG2330" transform="translate(285.2, 142.6) scale(2.3)" fill="rgba(27, 209, 117, 1)"></use><use xlink:href="#SvgjsG2333" transform="translate(285.2, 213.89999999999998) scale(2.3)" fill="rgba(27, 209, 117, 1)"></use><use xlink:href="#SvgjsG2333" transform="translate(285.2, 285.2) scale(2.3)" fill="rgba(55, 150, 131, 1)"></use><use xlink:href="#SvgjsG2334" transform="translate(285.2, 356.5) scale(2.3)" fill="rgba(27, 209, 117, 1)"></use><use xlink:href="#SvgjsG2333" transform="translate(285.2, 427.79999999999995) scale(2.3)" fill="rgba(27, 209, 117, 1)"></use><use xlink:href="#SvgjsG2332" transform="translate(285.2, 499.09999999999997) scale(2.3)" fill="rgba(27, 209, 117, 1)"></use><use xlink:href="#SvgjsG2332" transform="translate(285.2, 570.4) scale(2.3)" fill="rgba(55, 150, 131, 1)"></use><use xlink:href="#SvgjsG2331" transform="translate(285.2, 641.6999999999999) scale(2.3)" fill="rgba(55, 150, 131, 1)"></use><use xlink:href="#SvgjsG2334" transform="translate(356.5, 0) scale(2.3)" fill="rgba(27, 209, 117, 1)"></use><use xlink:href="#SvgjsG2334" transform="translate(356.5, 71.3) scale(2.3)" fill="rgba(27, 209, 117, 1)"></use><use xlink:href="#SvgjsG2331" transform="translate(356.5, 142.6) scale(2.3)" fill="rgba(27, 209, 117, 1)"></use><use xlink:href="#SvgjsG2333" transform="translate(356.5, 213.89999999999998) scale(2.3)" fill="rgba(55, 150, 131, 1)"></use><use xlink:href="#SvgjsG2333" transform="translate(356.5, 285.2) scale(2.3)" fill="rgba(27, 209, 117, 1)"></use><use xlink:href="#SvgjsG2333" transform="translate(356.5, 356.5) scale(2.3)" fill="rgba(27, 209, 117, 1)"></use><use xlink:href="#SvgjsG2333" transform="translate(356.5, 427.79999999999995) scale(2.3)" fill="rgba(55, 150, 131, 1)"></use><use xlink:href="#SvgjsG2332" transform="translate(356.5, 499.09999999999997) scale(2.3)" fill="rgba(27, 209, 117, 1)"></use><use xlink:href="#SvgjsG2330" transform="translate(356.5, 570.4) scale(2.3)" fill="rgba(55, 150, 131, 1)"></use><use xlink:href="#SvgjsG2331" transform="translate(356.5, 641.6999999999999) scale(2.3)" fill="rgba(55, 150, 131, 1)"></use><use xlink:href="#SvgjsG2333" transform="translate(427.79999999999995, 0) scale(2.3)" fill="rgba(27, 209, 117, 1)"></use><use xlink:href="#SvgjsG2333" transform="translate(427.79999999999995, 71.3) scale(2.3)" fill="rgba(55, 150, 131, 1)"></use><use xlink:href="#SvgjsG2332" transform="translate(427.79999999999995, 142.6) scale(2.3)" fill="rgba(27, 209, 117, 1)"></use><use xlink:href="#SvgjsG2332" transform="translate(427.79999999999995, 213.89999999999998) scale(2.3)" fill="rgba(27, 209, 117, 1)"></use><use xlink:href="#SvgjsG2334" transform="translate(427.79999999999995, 285.2) scale(2.3)" fill="rgba(55, 150, 131, 1)"></use><use xlink:href="#SvgjsG2334" transform="translate(427.79999999999995, 356.5) scale(2.3)" fill="rgba(27, 209, 117, 1)"></use><use xlink:href="#SvgjsG2333" transform="translate(427.79999999999995, 427.79999999999995) scale(2.3)" fill="rgba(27, 209, 117, 1)"></use><use xlink:href="#SvgjsG2331" transform="translate(427.79999999999995, 499.09999999999997) scale(2.3)" fill="rgba(55, 150, 131, 1)"></use><use xlink:href="#SvgjsG2334" transform="translate(427.79999999999995, 570.4) scale(2.3)" fill="rgba(27, 209, 117, 1)"></use><use xlink:href="#SvgjsG2332" transform="translate(427.79999999999995, 641.6999999999999) scale(2.3)" fill="rgba(55, 150, 131, 1)"></use><use xlink:href="#SvgjsG2332" transform="translate(499.09999999999997, 0) scale(2.3)" fill="rgba(27, 209, 117, 1)"></use><use xlink:href="#SvgjsG2331" transform="translate(499.09999999999997, 71.3) scale(2.3)" fill="rgba(27, 209, 117, 1)"></use><use xlink:href="#SvgjsG2332" transform="translate(499.09999999999997, 142.6) scale(2.3)" fill="rgba(55, 150, 131, 1)"></use><use xlink:href="#SvgjsG2333" transform="translate(499.09999999999997, 213.89999999999998) scale(2.3)" fill="rgba(55, 150, 131, 1)"></use><use xlink:href="#SvgjsG2330" transform="translate(499.09999999999997, 285.2) scale(2.3)" fill="rgba(27, 209, 117, 1)"></use><use xlink:href="#SvgjsG2330" transform="translate(499.09999999999997, 356.5) scale(2.3)" fill="rgba(55, 150, 131, 1)"></use><use xlink:href="#SvgjsG2333" transform="translate(499.09999999999997, 427.79999999999995) scale(2.3)" fill="rgba(55, 150, 131, 1)"></use><use xlink:href="#SvgjsG2333" transform="translate(499.09999999999997, 499.09999999999997) scale(2.3)" fill="rgba(27, 209, 117, 1)"></use><use xlink:href="#SvgjsG2333" transform="translate(499.09999999999997, 570.4) scale(2.3)" fill="rgba(27, 209, 117, 1)"></use><use xlink:href="#SvgjsG2334" transform="translate(499.09999999999997, 641.6999999999999) scale(2.3)" fill="rgba(27, 209, 117, 1)"></use><use xlink:href="#SvgjsG2330" transform="translate(570.4, 0) scale(2.3)" fill="rgba(55, 150, 131, 1)"></use><use xlink:href="#SvgjsG2332" transform="translate(570.4, 71.3) scale(2.3)" fill="rgba(55, 150, 131, 1)"></use><use xlink:href="#SvgjsG2333" transform="translate(570.4, 142.6) scale(2.3)" fill="rgba(27, 209, 117, 1)"></use><use xlink:href="#SvgjsG2330" transform="translate(570.4, 213.89999999999998) scale(2.3)" fill="rgba(27, 209, 117, 1)"></use><use xlink:href="#SvgjsG2332" transform="translate(570.4, 285.2) scale(2.3)" fill="rgba(55, 150, 131, 1)"></use><use xlink:href="#SvgjsG2334" transform="translate(570.4, 356.5) scale(2.3)" fill="rgba(27, 209, 117, 1)"></use><use xlink:href="#SvgjsG2332" transform="translate(570.4, 427.79999999999995) scale(2.3)" fill="rgba(55, 150, 131, 1)"></use><use xlink:href="#SvgjsG2331" transform="translate(570.4, 499.09999999999997) scale(2.3)" fill="rgba(55, 150, 131, 1)"></use><use xlink:href="#SvgjsG2332" transform="translate(570.4, 570.4) scale(2.3)" fill="rgba(55, 150, 131, 1)"></use><use xlink:href="#SvgjsG2334" transform="translate(570.4, 641.6999999999999) scale(2.3)" fill="rgba(55, 150, 131, 1)"></use><use xlink:href="#SvgjsG2330" transform="translate(641.6999999999999, 0) scale(2.3)" fill="rgba(27, 209, 117, 1)"></use><use xlink:href="#SvgjsG2330" transform="translate(641.6999999999999, 71.3) scale(2.3)" fill="rgba(27, 209, 117, 1)"></use><use xlink:href="#SvgjsG2334" transform="translate(641.6999999999999, 142.6) scale(2.3)" fill="rgba(55, 150, 131, 1)"></use><use xlink:href="#SvgjsG2333" transform="translate(641.6999999999999, 213.89999999999998) scale(2.3)" fill="rgba(27, 209, 117, 1)"></use><use xlink:href="#SvgjsG2333" transform="translate(641.6999999999999, 285.2) scale(2.3)" fill="rgba(27, 209, 117, 1)"></use><use xlink:href="#SvgjsG2333" transform="translate(641.6999999999999, 356.5) scale(2.3)" fill="rgba(55, 150, 131, 1)"></use><use xlink:href="#SvgjsG2334" transform="translate(641.6999999999999, 427.79999999999995) scale(2.3)" fill="rgba(27, 209, 117, 1)"></use><use xlink:href="#SvgjsG2331" transform="translate(641.6999999999999, 499.09999999999997) scale(2.3)" fill="rgba(55, 150, 131, 1)"></use><use xlink:href="#SvgjsG2331" transform="translate(641.6999999999999, 570.4) scale(2.3)" fill="rgba(27, 209, 117, 1)"></use><use xlink:href="#SvgjsG2333" transform="translate(641.6999999999999, 641.6999999999999) scale(2.3)" fill="rgba(55, 150, 131, 1)"></use></g></defs></svg>