<svg id="svg" version="1.1" xmlns="http://www.w3.org/2000/svg" style="display: block;" viewBox="0 0 375 375"><path d="M0,0 L375,0 L375,375 L0,375 Z " transform="translate(0,0)" style="fill-opacity: 0;"/><path d="M0,0 L16,0 L16,1 L20,1 L20,2 L24,2 L24,3 L26,3 L26,4 L28,4 L28,5 L30,5 L30,6 L32,6 L32,7 L33,7 L33,8 L35,8 L35,9 L36,9 L36,10 L37,10 L37,11 L38,11 L38,12 L39,12 L39,13 L40,13 L40,14 L41,14 L41,15 L42,15 L42,16 L43,16 L43,17 L44,17 L44,19 L45,19 L45,21 L46,21 L46,22 L47,22 L47,24 L48,24 L48,26 L49,26 L49,29 L50,29 L50,32 L51,32 L51,38 L52,38 L52,46 L51,46 L51,52 L50,52 L50,56 L49,56 L49,59 L48,59 L48,61 L47,61 L47,63 L46,63 L46,65 L45,65 L45,66 L44,66 L44,68 L43,68 L43,69 L42,69 L42,71 L41,71 L41,72 L40,72 L40,73 L39,73 L39,74 L37,74 L37,76 L35,76 L35,77 L34,77 L34,78 L33,78 L33,79 L32,79 L32,80 L31,80 L31,81 L30,81 L30,82 L29,82 L29,83 L28,83 L28,85 L27,85 L27,86 L26,86 L26,87 L25,87 L25,92 L26,92 L26,93 L27,93 L27,94 L29,94 L29,93 L31,93 L31,92 L34,92 L34,91 L36,91 L36,90 L39,90 L39,89 L41,89 L41,88 L44,88 L44,87 L46,87 L46,86 L50,86 L50,85 L53,85 L53,84 L56,84 L56,83 L60,83 L60,82 L63,82 L63,81 L67,81 L67,80 L72,80 L72,79 L79,79 L79,78 L84,78 L84,77 L123,77 L123,78 L126,78 L126,79 L128,79 L128,80 L138,80 L138,81 L139,81 L139,83 L138,83 L138,85 L137,85 L137,86 L136,86 L136,88 L139,88 L139,89 L142,89 L142,90 L145,90 L145,91 L147,91 L147,92 L149,92 L149,96 L148,96 L148,97 L147,97 L147,98 L148,98 L148,99 L150,99 L150,100 L153,100 L153,101 L154,101 L154,103 L153,103 L153,107 L159,107 L159,108 L163,108 L163,109 L168,109 L168,110 L170,110 L170,139 L169,139 L169,141 L168,141 L168,142 L167,142 L167,143 L166,143 L166,145 L165,145 L165,146 L164,146 L164,147 L163,147 L163,149 L162,149 L162,150 L161,150 L161,152 L160,152 L160,153 L159,153 L159,154 L158,154 L158,155 L157,155 L157,157 L156,157 L156,158 L155,158 L155,160 L154,160 L154,161 L153,161 L153,162 L152,162 L152,164 L151,164 L151,165 L150,165 L150,166 L149,166 L149,168 L148,168 L148,169 L147,169 L147,171 L146,171 L146,172 L145,172 L145,173 L144,173 L144,175 L143,175 L143,176 L142,176 L142,178 L141,178 L141,179 L140,179 L140,180 L139,180 L139,181 L138,181 L138,183 L137,183 L137,184 L136,184 L136,186 L135,186 L135,187 L134,187 L134,188 L133,188 L133,190 L132,190 L132,191 L131,191 L131,192 L130,192 L130,194 L129,194 L129,195 L128,195 L128,197 L127,197 L127,198 L126,198 L126,199 L125,199 L125,201 L124,201 L124,202 L123,202 L123,203 L122,203 L122,205 L121,205 L121,206 L120,206 L120,207 L119,207 L119,209 L118,209 L118,210 L117,210 L117,212 L116,212 L116,213 L115,213 L115,214 L114,214 L114,216 L113,216 L113,217 L112,217 L112,218 L111,218 L111,220 L110,220 L110,221 L109,221 L109,223 L108,223 L108,224 L107,224 L107,225 L106,225 L106,227 L105,227 L105,228 L104,228 L104,229 L103,229 L103,231 L102,231 L102,232 L101,232 L101,233 L100,233 L100,235 L99,235 L99,236 L98,236 L98,237 L97,237 L97,239 L96,239 L96,240 L95,240 L95,242 L94,242 L94,243 L93,243 L93,244 L92,244 L92,246 L91,246 L91,247 L90,247 L90,248 L34,248 L34,247 L-81,247 L-81,246 L-83,246 L-83,245 L-84,245 L-84,244 L-86,244 L-86,243 L-88,243 L-88,242 L-89,242 L-89,241 L-91,241 L-91,240 L-93,240 L-93,239 L-94,239 L-94,238 L-96,238 L-96,237 L-97,237 L-97,236 L-99,236 L-99,235 L-101,235 L-101,234 L-102,234 L-102,233 L-104,233 L-104,232 L-106,232 L-106,231 L-107,231 L-107,230 L-109,230 L-109,229 L-111,229 L-111,228 L-112,228 L-112,227 L-114,227 L-114,226 L-115,226 L-115,225 L-117,225 L-117,224 L-119,224 L-119,223 L-120,223 L-120,222 L-122,222 L-122,221 L-124,221 L-124,220 L-125,220 L-125,219 L-127,219 L-127,218 L-128,218 L-128,217 L-130,217 L-130,216 L-132,216 L-132,215 L-133,215 L-133,214 L-135,214 L-135,213 L-137,213 L-137,212 L-138,212 L-138,211 L-140,211 L-140,210 L-142,210 L-142,209 L-143,209 L-143,208 L-145,208 L-145,207 L-147,207 L-147,206 L-148,206 L-148,205 L-150,205 L-150,204 L-151,204 L-151,203 L-153,203 L-153,202 L-155,202 L-155,201 L-156,201 L-156,200 L-158,200 L-158,199 L-159,199 L-159,198 L-161,198 L-161,197 L-163,197 L-163,196 L-165,196 L-165,195 L-166,195 L-166,194 L-168,194 L-168,193 L-169,193 L-169,192 L-171,192 L-171,191 L-173,191 L-173,190 L-174,190 L-174,189 L-176,189 L-176,188 L-177,188 L-177,187 L-179,187 L-179,186 L-181,186 L-181,185 L-182,185 L-182,184 L-183,184 L-183,160 L-182,160 L-182,159 L-181,159 L-181,158 L-180,158 L-180,157 L-179,157 L-179,156 L-178,156 L-178,155 L-177,155 L-177,154 L-176,154 L-176,153 L-181,153 L-181,152 L-182,152 L-182,150 L-181,150 L-181,149 L-180,149 L-180,148 L-179,148 L-179,147 L-178,147 L-178,146 L-177,146 L-177,144 L-176,144 L-176,143 L-177,143 L-177,140 L-176,140 L-176,139 L-175,139 L-175,138 L-174,138 L-174,137 L-173,137 L-173,136 L-172,136 L-172,135 L-171,135 L-171,134 L-170,134 L-170,133 L-169,133 L-169,130 L-170,130 L-170,128 L-169,128 L-169,126 L-168,126 L-168,125 L-167,125 L-167,124 L-166,124 L-166,123 L-165,123 L-165,122 L-164,122 L-164,121 L-163,121 L-163,120 L-162,120 L-162,119 L-161,119 L-161,118 L-160,118 L-160,117 L-159,117 L-159,116 L-158,116 L-158,115 L-157,115 L-157,114 L-156,114 L-156,113 L-155,113 L-155,112 L-154,112 L-154,111 L-153,111 L-153,110 L-152,110 L-152,109 L-151,109 L-151,108 L-150,108 L-150,107 L-149,107 L-149,106 L-148,106 L-148,105 L-147,105 L-147,104 L-146,104 L-146,103 L-145,103 L-145,102 L-144,102 L-144,101 L-143,101 L-143,99 L-142,99 L-142,98 L-140,98 L-140,97 L-139,97 L-139,96 L-138,96 L-138,94 L-137,94 L-137,93 L-136,93 L-136,92 L-135,92 L-135,91 L-134,91 L-134,90 L-133,90 L-133,89 L-132,89 L-132,88 L-131,88 L-131,87 L-130,87 L-130,86 L-129,86 L-129,85 L-128,85 L-128,84 L-127,84 L-127,83 L-126,83 L-126,82 L-125,82 L-125,81 L-124,81 L-124,80 L-123,80 L-123,79 L-122,79 L-122,78 L-121,78 L-121,77 L-120,77 L-120,76 L-119,76 L-119,75 L-118,75 L-118,74 L-117,74 L-117,73 L-116,73 L-116,72 L-115,72 L-115,71 L-114,71 L-114,70 L-113,70 L-113,68 L-112,68 L-112,67 L-111,67 L-111,66 L-109,66 L-109,65 L-108,65 L-108,63 L-107,63 L-107,62 L-106,62 L-106,61 L-105,61 L-105,60 L-104,60 L-104,59 L-103,59 L-103,58 L-102,58 L-102,57 L-101,57 L-101,56 L-100,56 L-100,55 L-99,55 L-99,54 L-98,54 L-98,53 L-97,53 L-97,52 L-96,52 L-96,51 L-95,51 L-95,50 L-94,50 L-94,49 L-93,49 L-93,48 L-92,48 L-92,47 L-91,47 L-91,46 L-90,46 L-90,45 L-89,45 L-89,44 L-88,44 L-88,43 L-87,43 L-87,42 L-86,42 L-86,41 L-69,41 L-69,42 L-66,42 L-66,43 L-62,43 L-62,44 L-59,44 L-59,45 L-57,45 L-57,46 L-54,46 L-54,47 L-52,47 L-52,48 L-50,48 L-50,49 L-48,49 L-48,50 L-46,50 L-46,51 L-45,51 L-45,52 L-43,52 L-43,53 L-41,53 L-41,54 L-40,54 L-40,55 L-39,55 L-39,56 L-37,56 L-37,57 L-36,57 L-36,58 L-35,58 L-35,59 L-34,59 L-34,60 L-33,60 L-33,61 L-32,61 L-32,62 L-31,62 L-31,58 L-32,58 L-32,54 L-33,54 L-33,48 L-34,48 L-34,36 L-33,36 L-33,32 L-32,32 L-32,28 L-31,28 L-31,25 L-30,25 L-30,23 L-29,23 L-29,22 L-28,22 L-28,20 L-27,20 L-27,18 L-26,18 L-26,17 L-25,17 L-25,16 L-24,16 L-24,14 L-23,14 L-23,13 L-22,13 L-22,12 L-21,12 L-21,11 L-20,11 L-20,10 L-18,10 L-18,9 L-17,9 L-17,8 L-15,8 L-15,7 L-14,7 L-14,6 L-13,6 L-13,5 L-11,5 L-11,4 L-9,4 L-9,3 L-6,3 L-6,2 L-3,2 L-3,1 L0,1 Z " transform="translate(193,86)" style="fill: #040474;"/><path d="M0,0 L2,0 L2,1 L10,1 L10,2 L15,2 L15,3 L19,3 L19,4 L22,4 L22,5 L26,5 L26,6 L28,6 L28,7 L30,7 L30,8 L32,8 L32,9 L34,9 L34,10 L35,10 L35,11 L37,11 L37,12 L38,12 L38,13 L40,13 L40,14 L41,14 L41,15 L42,15 L42,16 L44,16 L44,17 L45,17 L45,18 L46,18 L46,19 L47,19 L47,20 L48,20 L48,21 L49,21 L49,22 L50,22 L50,23 L51,23 L51,25 L52,25 L52,26 L53,26 L53,30 L54,30 L54,32 L53,32 L53,35 L52,35 L52,40 L53,40 L53,42 L54,42 L54,43 L55,43 L55,44 L56,44 L56,46 L54,46 L54,47 L52,47 L52,48 L51,48 L51,49 L50,49 L50,50 L49,50 L49,52 L48,52 L48,60 L49,60 L49,61 L50,61 L50,62 L51,62 L51,63 L52,63 L52,69 L53,69 L53,70 L54,70 L54,71 L56,71 L56,77 L57,77 L57,79 L58,79 L58,81 L59,81 L59,82 L60,82 L60,83 L61,83 L61,84 L62,84 L62,87 L61,87 L61,88 L60,88 L60,90 L59,90 L59,92 L58,92 L58,93 L57,93 L57,95 L56,95 L56,96 L55,96 L55,98 L54,98 L54,99 L53,99 L53,101 L52,101 L52,102 L51,102 L51,104 L50,104 L50,105 L49,105 L49,107 L48,107 L48,108 L47,108 L47,110 L46,110 L46,111 L45,111 L45,113 L44,113 L44,114 L43,114 L43,116 L42,116 L42,117 L41,117 L41,119 L40,119 L40,120 L39,120 L39,122 L38,122 L38,123 L37,123 L37,125 L36,125 L36,126 L35,126 L35,128 L34,128 L34,129 L33,129 L33,131 L32,131 L32,132 L31,132 L31,134 L30,134 L30,135 L29,135 L29,137 L28,137 L28,138 L27,138 L27,140 L26,140 L26,141 L25,141 L25,143 L24,143 L24,144 L23,144 L23,146 L22,146 L22,147 L21,147 L21,149 L20,149 L20,150 L19,150 L19,152 L18,152 L18,153 L17,153 L17,155 L16,155 L16,156 L15,156 L15,158 L14,158 L14,159 L13,159 L13,161 L12,161 L12,162 L11,162 L11,164 L10,164 L10,165 L9,165 L9,167 L8,167 L8,161 L7,161 L7,157 L6,157 L6,153 L5,153 L5,149 L4,149 L4,146 L3,146 L3,143 L2,143 L2,140 L1,140 L1,138 L0,138 L0,135 L-1,135 L-1,133 L-2,133 L-2,131 L-3,131 L-3,129 L-4,129 L-4,127 L-5,127 L-5,125 L-6,125 L-6,124 L-7,124 L-7,122 L-8,122 L-8,120 L-9,120 L-9,119 L-10,119 L-10,117 L-11,117 L-11,116 L-12,116 L-12,115 L-13,115 L-13,113 L-14,113 L-14,112 L-15,112 L-15,111 L-16,111 L-16,110 L-17,110 L-17,109 L-18,109 L-18,108 L-19,108 L-19,107 L-20,107 L-20,106 L-21,106 L-21,105 L-22,105 L-22,104 L-23,104 L-23,103 L-24,103 L-24,102 L-25,102 L-25,101 L-26,101 L-26,100 L-28,100 L-28,99 L-29,99 L-29,98 L-30,98 L-30,97 L-32,97 L-32,96 L-33,96 L-33,95 L-35,95 L-35,94 L-37,94 L-37,93 L-39,93 L-39,92 L-41,92 L-41,91 L-43,91 L-43,90 L-45,90 L-45,89 L-47,89 L-47,88 L-50,88 L-50,87 L-53,87 L-53,86 L-56,86 L-56,85 L-60,85 L-60,84 L-65,84 L-65,83 L-73,83 L-73,82 L-78,82 L-78,81 L-77,81 L-77,80 L-76,80 L-76,78 L-75,78 L-75,77 L-74,77 L-74,76 L-73,76 L-73,75 L-72,75 L-72,74 L-71,74 L-71,73 L-70,73 L-70,72 L-69,72 L-69,71 L-68,71 L-68,70 L-67,70 L-67,69 L-66,69 L-66,68 L-65,68 L-65,67 L-64,67 L-64,66 L-63,66 L-63,65 L-62,65 L-62,64 L-61,64 L-61,63 L-60,63 L-60,62 L-59,62 L-59,61 L-58,61 L-58,60 L-57,60 L-57,59 L-56,59 L-56,58 L-55,58 L-55,57 L-54,57 L-54,56 L-53,56 L-53,55 L-52,55 L-52,54 L-51,54 L-51,53 L-50,53 L-50,52 L-49,52 L-49,51 L-48,51 L-48,50 L-47,50 L-47,49 L-46,49 L-46,48 L-45,48 L-45,46 L-44,46 L-44,45 L-43,45 L-43,44 L-42,44 L-42,43 L-41,43 L-41,42 L-40,42 L-40,41 L-39,41 L-39,40 L-38,40 L-38,39 L-37,39 L-37,38 L-36,38 L-36,37 L-35,37 L-35,36 L-34,36 L-34,35 L-33,35 L-33,34 L-32,34 L-32,33 L-31,33 L-31,32 L-30,32 L-30,31 L-29,31 L-29,30 L-28,30 L-28,29 L-27,29 L-27,28 L-26,28 L-26,27 L-25,27 L-25,26 L-24,26 L-24,25 L-23,25 L-23,24 L-22,24 L-22,23 L-21,23 L-21,22 L-20,22 L-20,21 L-19,21 L-19,20 L-18,20 L-18,19 L-17,19 L-17,18 L-16,18 L-16,16 L-15,16 L-15,15 L-14,15 L-14,14 L-13,14 L-13,13 L-12,13 L-12,12 L-11,12 L-11,11 L-10,11 L-10,10 L-9,10 L-9,9 L-8,9 L-8,8 L-7,8 L-7,7 L-6,7 L-6,6 L-5,6 L-5,5 L-4,5 L-4,4 L-3,4 L-3,3 L-2,3 L-2,2 L-1,2 L-1,1 L0,1 Z " transform="translate(110,130)" style="fill: #FEFEFE;"/><path d="M0,0 L30,0 L30,1 L39,1 L39,2 L42,2 L42,4 L41,4 L41,6 L40,6 L40,7 L39,7 L39,8 L38,8 L38,9 L37,9 L37,11 L36,11 L36,12 L35,12 L35,13 L34,13 L34,15 L33,15 L33,16 L32,16 L32,17 L31,17 L31,19 L30,19 L30,20 L29,20 L29,21 L28,21 L28,22 L27,22 L27,24 L26,24 L26,25 L25,25 L25,26 L24,26 L24,28 L23,28 L23,29 L22,29 L22,30 L21,30 L21,31 L20,31 L20,33 L19,33 L19,34 L18,34 L18,35 L17,35 L17,37 L16,37 L16,38 L15,38 L15,39 L14,39 L14,41 L13,41 L13,42 L12,42 L12,43 L11,43 L11,44 L10,44 L10,46 L9,46 L9,47 L8,47 L8,48 L7,48 L7,50 L6,50 L6,51 L5,51 L5,52 L4,52 L4,54 L3,54 L3,55 L2,55 L2,56 L1,56 L1,57 L0,57 L0,59 L-1,59 L-1,60 L-2,60 L-2,61 L-3,61 L-3,63 L-4,63 L-4,64 L-5,64 L-5,65 L-6,65 L-6,66 L-7,66 L-7,68 L-8,68 L-8,69 L-9,69 L-9,70 L-10,70 L-10,72 L-11,72 L-11,73 L-12,73 L-12,74 L-13,74 L-13,76 L-14,76 L-14,77 L-15,77 L-15,78 L-16,78 L-16,79 L-17,79 L-17,81 L-18,81 L-18,82 L-19,82 L-19,83 L-20,83 L-20,85 L-21,85 L-21,86 L-22,86 L-22,87 L-23,87 L-23,89 L-24,89 L-24,90 L-25,90 L-25,91 L-26,91 L-26,92 L-27,92 L-27,94 L-28,94 L-28,93 L-32,93 L-32,92 L-38,92 L-38,91 L-43,91 L-43,90 L-51,90 L-51,89 L-64,89 L-64,88 L-76,88 L-76,89 L-88,89 L-88,90 L-94,90 L-94,91 L-99,91 L-99,92 L-103,92 L-103,93 L-107,93 L-107,94 L-110,94 L-110,95 L-113,95 L-113,96 L-116,96 L-116,97 L-118,97 L-118,98 L-121,98 L-121,99 L-123,99 L-123,100 L-125,100 L-125,101 L-127,101 L-127,102 L-129,102 L-129,103 L-131,103 L-131,104 L-133,104 L-133,105 L-135,105 L-135,106 L-136,106 L-136,107 L-138,107 L-138,108 L-140,108 L-140,109 L-141,109 L-141,110 L-142,110 L-142,111 L-144,111 L-144,112 L-145,112 L-145,113 L-146,113 L-146,114 L-147,114 L-147,115 L-149,115 L-149,114 L-148,114 L-148,112 L-147,112 L-147,111 L-146,111 L-146,109 L-145,109 L-145,108 L-144,108 L-144,106 L-143,106 L-143,105 L-142,105 L-142,103 L-141,103 L-141,102 L-140,102 L-140,100 L-139,100 L-139,99 L-138,99 L-138,97 L-137,97 L-137,96 L-136,96 L-136,94 L-135,94 L-135,93 L-134,93 L-134,91 L-133,91 L-133,90 L-132,90 L-132,88 L-131,88 L-131,87 L-130,87 L-130,85 L-129,85 L-129,84 L-128,84 L-128,82 L-127,82 L-127,81 L-126,81 L-126,79 L-125,79 L-125,78 L-124,78 L-124,76 L-123,76 L-123,75 L-122,75 L-122,73 L-121,73 L-121,72 L-120,72 L-120,70 L-119,70 L-119,69 L-118,69 L-118,67 L-117,67 L-117,66 L-116,66 L-116,64 L-115,64 L-115,63 L-114,63 L-114,61 L-113,61 L-113,60 L-112,60 L-112,58 L-111,58 L-111,57 L-110,57 L-110,55 L-109,55 L-109,54 L-108,54 L-108,52 L-107,52 L-107,51 L-106,51 L-106,50 L-96,50 L-96,49 L-94,49 L-94,48 L-93,48 L-93,47 L-91,47 L-91,46 L-90,46 L-90,44 L-89,44 L-89,43 L-88,43 L-88,42 L-84,42 L-84,41 L-82,41 L-82,40 L-81,40 L-81,39 L-80,39 L-80,37 L-79,37 L-79,35 L-76,35 L-76,34 L-75,34 L-75,33 L-74,33 L-74,31 L-73,31 L-73,27 L-72,27 L-72,23 L-71,23 L-71,22 L-69,22 L-69,21 L-67,21 L-67,20 L-65,20 L-65,19 L-63,19 L-63,18 L-61,18 L-61,17 L-59,17 L-59,16 L-57,16 L-57,15 L-54,15 L-54,14 L-52,14 L-52,13 L-49,13 L-49,12 L-47,12 L-47,11 L-44,11 L-44,10 L-41,10 L-41,9 L-38,9 L-38,8 L-35,8 L-35,7 L-31,7 L-31,6 L-28,6 L-28,5 L-24,5 L-24,4 L-20,4 L-20,3 L-15,3 L-15,2 L-8,2 L-8,1 L0,1 Z " transform="translate(283,167)" style="fill: #FEFEFE;"/><path d="M0,0 L17,0 L17,1 L19,1 L19,2 L22,2 L22,3 L24,3 L24,4 L26,4 L26,5 L28,5 L28,6 L30,6 L30,7 L31,7 L31,8 L33,8 L33,9 L34,9 L34,10 L35,10 L35,11 L36,11 L36,12 L37,12 L37,13 L38,13 L38,14 L39,14 L39,16 L40,16 L40,17 L41,17 L41,19 L42,19 L42,21 L43,21 L43,23 L44,23 L44,25 L45,25 L45,28 L46,28 L46,31 L47,31 L47,45 L46,45 L46,49 L45,49 L45,52 L44,52 L44,54 L43,54 L43,57 L42,57 L42,58 L41,58 L41,60 L40,60 L40,62 L39,62 L39,63 L38,63 L38,64 L37,64 L37,65 L36,65 L36,66 L35,66 L35,67 L34,67 L34,68 L33,68 L33,69 L32,69 L32,70 L31,70 L31,71 L30,71 L30,72 L29,72 L29,73 L28,73 L28,74 L27,74 L27,75 L26,75 L26,76 L25,76 L25,77 L24,77 L24,78 L23,78 L23,79 L20,79 L20,78 L18,78 L18,77 L16,77 L16,76 L14,76 L14,75 L12,75 L12,74 L9,74 L9,73 L8,73 L8,68 L9,68 L9,63 L10,63 L10,59 L11,59 L11,56 L12,56 L12,53 L13,53 L13,50 L14,50 L14,49 L25,49 L25,48 L26,48 L26,47 L27,47 L27,46 L28,46 L28,41 L27,41 L27,40 L26,40 L26,39 L23,39 L23,38 L19,38 L19,39 L17,39 L17,40 L16,40 L16,41 L15,41 L15,42 L14,42 L14,43 L13,43 L13,44 L9,44 L9,43 L5,43 L5,42 L2,42 L2,41 L0,41 L0,35 L-1,35 L-1,33 L-2,33 L-2,31 L-3,31 L-3,30 L-4,30 L-4,29 L-9,29 L-9,30 L-11,30 L-11,31 L-12,31 L-12,33 L-13,33 L-13,37 L-12,37 L-12,39 L-11,39 L-11,40 L-10,40 L-10,41 L-9,41 L-9,42 L-7,42 L-7,43 L-4,43 L-4,44 L-3,44 L-3,46 L-4,46 L-4,53 L-5,53 L-5,57 L-6,57 L-6,61 L-7,61 L-7,64 L-8,64 L-8,67 L-9,67 L-9,69 L-16,69 L-16,68 L-25,68 L-25,69 L-27,69 L-27,62 L-28,62 L-28,55 L-29,55 L-29,50 L-30,50 L-30,47 L-31,47 L-31,30 L-30,30 L-30,27 L-29,27 L-29,24 L-28,24 L-28,22 L-27,22 L-27,20 L-26,20 L-26,18 L-25,18 L-25,17 L-24,17 L-24,15 L-23,15 L-23,14 L-22,14 L-22,13 L-21,13 L-21,12 L-20,12 L-20,11 L-19,11 L-19,10 L-18,10 L-18,9 L-17,9 L-17,8 L-16,8 L-16,7 L-14,7 L-14,6 L-13,6 L-13,5 L-11,5 L-11,4 L-9,4 L-9,3 L-7,3 L-7,2 L-5,2 L-5,1 L0,1 Z " transform="translate(194,90)" style="fill: #FAD725;"/><path d="M0,0 L164,0 L164,17 L132,17 L132,16 L49,16 L49,15 L0,15 Z " transform="translate(115,313)" style="fill: #1ACE76;"/><path d="M0,0 L2,0 L2,1 L3,1 L3,2 L2,2 L2,3 L1,3 L1,5 L0,5 L0,6 L-1,6 L-1,8 L-2,8 L-2,9 L-3,9 L-3,11 L-4,11 L-4,12 L-5,12 L-5,13 L-6,13 L-6,15 L-7,15 L-7,16 L-8,16 L-8,18 L-9,18 L-9,19 L-10,19 L-10,21 L-11,21 L-11,22 L-12,22 L-12,24 L-13,24 L-13,25 L-14,25 L-14,26 L-15,26 L-15,28 L-16,28 L-16,29 L-17,29 L-17,31 L-18,31 L-18,32 L-19,32 L-19,33 L-20,33 L-20,35 L-21,35 L-21,36 L-22,36 L-22,38 L-23,38 L-23,39 L-24,39 L-24,40 L-25,40 L-25,42 L-26,42 L-26,43 L-27,43 L-27,45 L-28,45 L-28,46 L-29,46 L-29,48 L-30,48 L-30,49 L-31,49 L-31,50 L-32,50 L-32,52 L-33,52 L-33,53 L-34,53 L-34,55 L-35,55 L-35,56 L-36,56 L-36,58 L-37,58 L-37,59 L-38,59 L-38,60 L-39,60 L-39,62 L-40,62 L-40,63 L-41,63 L-41,65 L-42,65 L-42,66 L-43,66 L-43,68 L-44,68 L-44,69 L-45,69 L-45,70 L-46,70 L-46,72 L-47,72 L-47,73 L-48,73 L-48,75 L-49,75 L-49,76 L-50,76 L-50,77 L-51,77 L-51,79 L-52,79 L-52,80 L-53,80 L-53,82 L-54,82 L-54,83 L-55,83 L-55,85 L-56,85 L-56,86 L-57,86 L-57,87 L-58,87 L-58,89 L-59,89 L-59,90 L-60,90 L-60,92 L-61,92 L-61,93 L-62,93 L-62,95 L-63,95 L-63,96 L-64,96 L-64,97 L-65,97 L-65,99 L-66,99 L-66,100 L-67,100 L-67,102 L-68,102 L-68,103 L-69,103 L-69,105 L-70,105 L-70,106 L-71,106 L-71,107 L-72,107 L-72,109 L-73,109 L-73,110 L-231,110 L-231,109 L-229,109 L-229,108 L-226,108 L-226,107 L-224,107 L-224,106 L-221,106 L-221,105 L-219,105 L-219,104 L-216,104 L-216,103 L-213,103 L-213,102 L-210,102 L-210,101 L-206,101 L-206,100 L-202,100 L-202,99 L-198,99 L-198,98 L-193,98 L-193,97 L-187,97 L-187,96 L-179,96 L-179,95 L-165,95 L-165,94 L-150,94 L-150,95 L-133,95 L-133,96 L-124,96 L-124,97 L-116,97 L-116,98 L-110,98 L-110,99 L-104,99 L-104,100 L-99,100 L-99,101 L-94,101 L-94,102 L-89,102 L-89,103 L-85,103 L-85,104 L-79,104 L-79,103 L-78,103 L-78,102 L-77,102 L-77,101 L-76,101 L-76,100 L-75,100 L-75,98 L-74,98 L-74,97 L-73,97 L-73,96 L-72,96 L-72,94 L-71,94 L-71,93 L-70,93 L-70,92 L-69,92 L-69,90 L-68,90 L-68,89 L-67,89 L-67,88 L-66,88 L-66,87 L-65,87 L-65,85 L-64,85 L-64,84 L-63,84 L-63,83 L-62,83 L-62,81 L-61,81 L-61,80 L-60,80 L-60,79 L-59,79 L-59,77 L-58,77 L-58,76 L-57,76 L-57,75 L-56,75 L-56,73 L-55,73 L-55,72 L-54,72 L-54,71 L-53,71 L-53,69 L-52,69 L-52,68 L-51,68 L-51,67 L-50,67 L-50,65 L-49,65 L-49,64 L-48,64 L-48,63 L-47,63 L-47,62 L-46,62 L-46,60 L-45,60 L-45,59 L-44,59 L-44,58 L-43,58 L-43,56 L-42,56 L-42,55 L-41,55 L-41,54 L-40,54 L-40,52 L-39,52 L-39,51 L-38,51 L-38,50 L-37,50 L-37,48 L-36,48 L-36,47 L-35,47 L-35,46 L-34,46 L-34,45 L-33,45 L-33,43 L-32,43 L-32,42 L-31,42 L-31,41 L-30,41 L-30,39 L-29,39 L-29,38 L-28,38 L-28,37 L-27,37 L-27,35 L-26,35 L-26,34 L-25,34 L-25,33 L-24,33 L-24,31 L-23,31 L-23,30 L-22,30 L-22,29 L-21,29 L-21,28 L-20,28 L-20,26 L-19,26 L-19,25 L-18,25 L-18,24 L-17,24 L-17,22 L-16,22 L-16,21 L-15,21 L-15,20 L-14,20 L-14,18 L-13,18 L-13,17 L-12,17 L-12,16 L-11,16 L-11,14 L-10,14 L-10,13 L-9,13 L-9,12 L-8,12 L-8,10 L-7,10 L-7,9 L-6,9 L-6,8 L-5,8 L-5,7 L-4,7 L-4,5 L-3,5 L-3,4 L-2,4 L-2,3 L-1,3 L-1,1 L0,1 Z " transform="translate(354,198)" style="fill: #B0B0D3;"/><path d="M0,0 L1,0 L1,1 L4,1 L4,2 L8,2 L8,3 L12,3 L12,4 L16,4 L16,5 L19,5 L19,6 L22,6 L22,7 L25,7 L25,8 L28,8 L28,9 L30,9 L30,10 L33,10 L33,11 L35,11 L35,12 L37,12 L37,13 L39,13 L39,14 L41,14 L41,15 L43,15 L43,16 L45,16 L45,17 L46,17 L46,18 L48,18 L48,19 L49,19 L49,20 L51,20 L51,21 L52,21 L52,22 L54,22 L54,23 L55,23 L55,24 L56,24 L56,25 L57,25 L57,26 L59,26 L59,27 L60,27 L60,28 L61,28 L61,29 L62,29 L62,30 L63,30 L63,31 L64,31 L64,32 L65,32 L65,33 L66,33 L66,34 L67,34 L67,35 L69,35 L69,36 L71,36 L71,37 L73,37 L73,38 L75,38 L75,39 L78,39 L78,40 L81,40 L81,41 L94,41 L94,40 L98,40 L98,39 L101,39 L101,38 L103,38 L103,37 L105,37 L105,36 L107,36 L107,35 L109,35 L109,34 L110,34 L110,33 L111,33 L111,32 L112,32 L112,31 L113,31 L113,30 L111,30 L111,29 L110,29 L110,28 L109,28 L109,27 L108,27 L108,26 L107,26 L107,25 L106,25 L106,24 L105,24 L105,16 L106,16 L106,15 L107,15 L107,14 L108,14 L108,13 L110,13 L110,12 L117,12 L117,13 L119,13 L119,14 L120,14 L120,15 L122,15 L122,16 L124,16 L124,14 L125,14 L125,13 L126,13 L126,11 L127,11 L127,10 L128,10 L128,8 L129,8 L129,7 L130,7 L130,5 L131,5 L131,3 L132,3 L132,5 L133,5 L133,6 L134,6 L134,7 L135,7 L135,8 L136,8 L136,11 L135,11 L135,12 L134,12 L134,14 L133,14 L133,16 L132,16 L132,17 L131,17 L131,19 L130,19 L130,20 L129,20 L129,22 L128,22 L128,23 L127,23 L127,25 L126,25 L126,26 L125,26 L125,28 L124,28 L124,29 L123,29 L123,31 L122,31 L122,32 L121,32 L121,34 L120,34 L120,35 L119,35 L119,37 L118,37 L118,38 L117,38 L117,40 L116,40 L116,41 L115,41 L115,43 L114,43 L114,44 L113,44 L113,46 L112,46 L112,47 L111,47 L111,49 L110,49 L110,50 L109,50 L109,52 L108,52 L108,53 L107,53 L107,55 L106,55 L106,56 L105,56 L105,58 L104,58 L104,59 L103,59 L103,61 L102,61 L102,62 L101,62 L101,64 L100,64 L100,65 L99,65 L99,67 L98,67 L98,68 L97,68 L97,70 L96,70 L96,71 L95,71 L95,73 L94,73 L94,74 L93,74 L93,76 L92,76 L92,77 L91,77 L91,79 L90,79 L90,80 L89,80 L89,82 L88,82 L88,83 L87,83 L87,85 L86,85 L86,86 L85,86 L85,88 L84,88 L84,89 L83,89 L83,91 L82,91 L82,85 L81,85 L81,81 L80,81 L80,77 L79,77 L79,73 L78,73 L78,70 L77,70 L77,67 L76,67 L76,64 L75,64 L75,62 L74,62 L74,59 L73,59 L73,57 L72,57 L72,55 L71,55 L71,53 L70,53 L70,51 L69,51 L69,49 L68,49 L68,48 L67,48 L67,46 L66,46 L66,44 L65,44 L65,43 L64,43 L64,41 L63,41 L63,40 L62,40 L62,39 L61,39 L61,37 L60,37 L60,36 L59,36 L59,35 L58,35 L58,34 L57,34 L57,33 L56,33 L56,32 L55,32 L55,31 L54,31 L54,30 L53,30 L53,29 L52,29 L52,28 L51,28 L51,27 L50,27 L50,26 L49,26 L49,25 L48,25 L48,24 L46,24 L46,23 L45,23 L45,22 L44,22 L44,21 L42,21 L42,20 L41,20 L41,19 L39,19 L39,18 L37,18 L37,17 L35,17 L35,16 L33,16 L33,15 L31,15 L31,14 L29,14 L29,13 L27,13 L27,12 L24,12 L24,11 L21,11 L21,10 L18,10 L18,9 L14,9 L14,8 L9,8 L9,7 L1,7 L1,6 L-4,6 L-4,5 L-3,5 L-3,4 L-2,4 L-2,2 L-1,2 L-1,1 L0,1 Z " transform="translate(36,206)" style="fill: #B1B1D3;"/><path d="M0,0 L2,0 L2,1 L5,1 L5,2 L10,2 L10,3 L12,3 L12,4 L11,4 L11,5 L10,5 L10,6 L9,6 L9,8 L8,8 L8,9 L7,9 L7,10 L6,10 L6,12 L5,12 L5,13 L4,13 L4,14 L3,14 L3,15 L2,15 L2,17 L1,17 L1,18 L0,18 L0,19 L-1,19 L-1,21 L-2,21 L-2,22 L-3,22 L-3,23 L-4,23 L-4,25 L-5,25 L-5,26 L-6,26 L-6,27 L-7,27 L-7,29 L-8,29 L-8,30 L-9,30 L-9,31 L-10,31 L-10,33 L-11,33 L-11,34 L-12,34 L-12,35 L-13,35 L-13,36 L-14,36 L-14,38 L-15,38 L-15,39 L-16,39 L-16,40 L-17,40 L-17,42 L-18,42 L-18,43 L-19,43 L-19,44 L-20,44 L-20,46 L-21,46 L-21,47 L-22,47 L-22,48 L-23,48 L-23,50 L-24,50 L-24,51 L-25,51 L-25,52 L-26,52 L-26,54 L-27,54 L-27,55 L-28,55 L-28,56 L-29,56 L-29,57 L-30,57 L-30,59 L-31,59 L-31,60 L-32,60 L-32,61 L-33,61 L-33,63 L-34,63 L-34,64 L-35,64 L-35,65 L-36,65 L-36,67 L-37,67 L-37,68 L-38,68 L-38,69 L-39,69 L-39,71 L-40,71 L-40,72 L-41,72 L-41,73 L-42,73 L-42,75 L-43,75 L-43,76 L-44,76 L-44,77 L-45,77 L-45,78 L-46,78 L-46,80 L-47,80 L-47,81 L-48,81 L-48,82 L-49,82 L-49,84 L-50,84 L-50,85 L-51,85 L-51,86 L-52,86 L-52,88 L-53,88 L-53,89 L-54,89 L-54,90 L-55,90 L-55,92 L-56,92 L-56,93 L-57,93 L-57,94 L-58,94 L-58,95 L-59,95 L-59,97 L-60,97 L-60,96 L-65,96 L-65,95 L-70,95 L-70,94 L-75,94 L-75,93 L-81,93 L-81,92 L-88,92 L-88,91 L-100,91 L-100,90 L-129,90 L-129,91 L-139,91 L-139,92 L-145,92 L-145,93 L-150,93 L-150,94 L-155,94 L-155,95 L-159,95 L-159,96 L-162,96 L-162,97 L-166,97 L-166,98 L-169,98 L-169,99 L-171,99 L-171,100 L-173,100 L-173,102 L-174,102 L-174,101 L-176,101 L-176,100 L-174,100 L-174,99 L-173,99 L-173,98 L-171,98 L-171,97 L-169,97 L-169,96 L-167,96 L-167,95 L-165,95 L-165,94 L-163,94 L-163,93 L-160,93 L-160,92 L-158,92 L-158,91 L-155,91 L-155,90 L-152,90 L-152,89 L-149,89 L-149,88 L-146,88 L-146,87 L-142,87 L-142,86 L-137,86 L-137,85 L-131,85 L-131,84 L-122,84 L-122,83 L-99,83 L-99,84 L-90,84 L-90,85 L-83,85 L-83,86 L-78,86 L-78,87 L-73,87 L-73,88 L-69,88 L-69,89 L-68,89 L-68,88 L-67,88 L-67,87 L-66,87 L-66,86 L-65,86 L-65,85 L-64,85 L-64,83 L-63,83 L-63,82 L-62,82 L-62,81 L-61,81 L-61,80 L-60,80 L-60,78 L-59,78 L-59,77 L-58,77 L-58,76 L-57,76 L-57,74 L-56,74 L-56,73 L-55,73 L-55,72 L-54,72 L-54,70 L-53,70 L-53,69 L-52,69 L-52,68 L-51,68 L-51,67 L-50,67 L-50,65 L-49,65 L-49,64 L-48,64 L-48,63 L-47,63 L-47,61 L-46,61 L-46,60 L-45,60 L-45,59 L-44,59 L-44,58 L-43,58 L-43,56 L-42,56 L-42,55 L-41,55 L-41,54 L-40,54 L-40,52 L-39,52 L-39,51 L-38,51 L-38,50 L-37,50 L-37,48 L-36,48 L-36,47 L-35,47 L-35,46 L-34,46 L-34,45 L-33,45 L-33,43 L-32,43 L-32,42 L-31,42 L-31,41 L-30,41 L-30,39 L-29,39 L-29,38 L-28,38 L-28,37 L-27,37 L-27,35 L-26,35 L-26,34 L-25,34 L-25,33 L-24,33 L-24,32 L-23,32 L-23,30 L-22,30 L-22,29 L-21,29 L-21,28 L-20,28 L-20,26 L-19,26 L-19,25 L-18,25 L-18,24 L-17,24 L-17,22 L-16,22 L-16,21 L-15,21 L-15,20 L-14,20 L-14,19 L-13,19 L-13,17 L-12,17 L-12,16 L-11,16 L-11,15 L-10,15 L-10,13 L-9,13 L-9,12 L-8,12 L-8,11 L-7,11 L-7,10 L-6,10 L-6,8 L-5,8 L-5,7 L-4,7 L-4,6 L-3,6 L-3,4 L-2,4 L-2,3 L-1,3 L-1,2 L0,2 Z " transform="translate(325,177)" style="fill: #B1B1D3;"/><path d="M0,0 L2,0 L2,1 L4,1 L4,2 L6,2 L6,4 L5,4 L5,5 L4,5 L4,6 L3,6 L3,8 L2,8 L2,9 L1,9 L1,10 L0,10 L0,12 L-1,12 L-1,13 L-2,13 L-2,14 L-3,14 L-3,15 L-4,15 L-4,17 L-5,17 L-5,18 L-6,18 L-6,19 L-7,19 L-7,21 L-8,21 L-8,22 L-9,22 L-9,23 L-10,23 L-10,25 L-11,25 L-11,26 L-12,26 L-12,27 L-13,27 L-13,29 L-14,29 L-14,30 L-15,30 L-15,31 L-16,31 L-16,32 L-17,32 L-17,34 L-18,34 L-18,35 L-19,35 L-19,36 L-20,36 L-20,38 L-21,38 L-21,39 L-22,39 L-22,40 L-23,40 L-23,42 L-24,42 L-24,43 L-25,43 L-25,44 L-26,44 L-26,46 L-27,46 L-27,47 L-28,47 L-28,48 L-29,48 L-29,49 L-30,49 L-30,51 L-31,51 L-31,52 L-32,52 L-32,53 L-33,53 L-33,55 L-34,55 L-34,56 L-35,56 L-35,57 L-36,57 L-36,59 L-37,59 L-37,60 L-38,60 L-38,61 L-39,61 L-39,63 L-40,63 L-40,64 L-41,64 L-41,65 L-42,65 L-42,67 L-43,67 L-43,68 L-44,68 L-44,69 L-45,69 L-45,71 L-46,71 L-46,72 L-47,72 L-47,73 L-48,73 L-48,74 L-49,74 L-49,76 L-50,76 L-50,77 L-51,77 L-51,78 L-52,78 L-52,80 L-53,80 L-53,81 L-54,81 L-54,82 L-55,82 L-55,84 L-56,84 L-56,85 L-57,85 L-57,86 L-58,86 L-58,87 L-59,87 L-59,89 L-60,89 L-60,90 L-61,90 L-61,91 L-62,91 L-62,93 L-63,93 L-63,94 L-64,94 L-64,95 L-65,95 L-65,97 L-66,97 L-66,98 L-67,98 L-67,99 L-68,99 L-68,101 L-69,101 L-69,102 L-70,102 L-70,101 L-74,101 L-74,100 L-79,100 L-79,99 L-83,99 L-83,98 L-88,98 L-88,97 L-94,97 L-94,96 L-100,96 L-100,95 L-107,95 L-107,94 L-114,94 L-114,93 L-127,93 L-127,92 L-162,92 L-162,93 L-172,93 L-172,94 L-178,94 L-178,95 L-184,95 L-184,96 L-189,96 L-189,97 L-193,97 L-193,98 L-197,98 L-197,99 L-200,99 L-200,100 L-203,100 L-203,101 L-206,101 L-206,102 L-209,102 L-209,103 L-212,103 L-212,104 L-214,104 L-214,105 L-217,105 L-217,106 L-218,106 L-218,107 L-220,107 L-220,106 L-219,106 L-219,105 L-218,105 L-218,104 L-216,104 L-216,103 L-215,103 L-215,102 L-213,102 L-213,101 L-212,101 L-212,100 L-210,100 L-210,99 L-208,99 L-208,98 L-206,98 L-206,97 L-204,97 L-204,96 L-201,96 L-201,95 L-199,95 L-199,94 L-196,94 L-196,93 L-193,93 L-193,92 L-190,92 L-190,91 L-186,91 L-186,90 L-181,90 L-181,89 L-176,89 L-176,88 L-169,88 L-169,87 L-162,87 L-162,86 L-122,86 L-122,87 L-113,87 L-113,88 L-105,88 L-105,89 L-98,89 L-98,90 L-93,90 L-93,91 L-87,91 L-87,92 L-82,92 L-82,93 L-78,93 L-78,94 L-74,94 L-74,95 L-72,95 L-72,94 L-71,94 L-71,93 L-70,93 L-70,92 L-69,92 L-69,91 L-68,91 L-68,89 L-67,89 L-67,88 L-66,88 L-66,87 L-65,87 L-65,85 L-64,85 L-64,84 L-63,84 L-63,83 L-62,83 L-62,81 L-61,81 L-61,80 L-60,80 L-60,79 L-59,79 L-59,77 L-58,77 L-58,76 L-57,76 L-57,75 L-56,75 L-56,74 L-55,74 L-55,72 L-54,72 L-54,71 L-53,71 L-53,70 L-52,70 L-52,68 L-51,68 L-51,67 L-50,67 L-50,66 L-49,66 L-49,64 L-48,64 L-48,63 L-47,63 L-47,62 L-46,62 L-46,60 L-45,60 L-45,59 L-44,59 L-44,58 L-43,58 L-43,56 L-42,56 L-42,55 L-41,55 L-41,54 L-40,54 L-40,52 L-39,52 L-39,51 L-38,51 L-38,50 L-37,50 L-37,49 L-36,49 L-36,47 L-35,47 L-35,46 L-34,46 L-34,45 L-33,45 L-33,43 L-32,43 L-32,42 L-31,42 L-31,41 L-30,41 L-30,39 L-29,39 L-29,38 L-28,38 L-28,37 L-27,37 L-27,35 L-26,35 L-26,34 L-25,34 L-25,33 L-24,33 L-24,31 L-23,31 L-23,30 L-22,30 L-22,29 L-21,29 L-21,27 L-20,27 L-20,26 L-19,26 L-19,25 L-18,25 L-18,24 L-17,24 L-17,22 L-16,22 L-16,21 L-15,21 L-15,20 L-14,20 L-14,18 L-13,18 L-13,17 L-12,17 L-12,16 L-11,16 L-11,14 L-10,14 L-10,13 L-9,13 L-9,12 L-8,12 L-8,10 L-7,10 L-7,9 L-6,9 L-6,8 L-5,8 L-5,6 L-4,6 L-4,5 L-3,5 L-3,4 L-2,4 L-2,2 L-1,2 L-1,1 L0,1 Z " transform="translate(342,196)" style="fill: #B0B1D3;"/><path d="M0,0 L6,0 L6,1 L4,1 L4,2 L3,2 L3,3 L2,3 L2,5 L1,5 L1,6 L3,6 L3,5 L15,5 L15,6 L16,6 L16,11 L15,11 L15,12 L14,12 L14,14 L13,14 L13,15 L11,15 L11,16 L9,16 L9,17 L5,17 L5,18 L1,18 L1,19 L-3,19 L-3,20 L-4,20 L-4,21 L-3,21 L-3,24 L-2,24 L-2,26 L-1,26 L-1,28 L0,28 L0,29 L1,29 L1,30 L2,30 L2,31 L3,31 L3,32 L5,32 L5,33 L6,33 L6,34 L10,34 L10,35 L16,35 L16,34 L22,34 L22,33 L31,33 L31,32 L52,32 L52,33 L61,33 L61,34 L67,34 L67,35 L71,35 L71,36 L74,36 L74,37 L78,37 L78,38 L81,38 L81,39 L82,39 L82,40 L81,40 L81,41 L80,41 L80,42 L79,42 L79,44 L78,44 L78,43 L74,43 L74,42 L68,42 L68,41 L63,41 L63,40 L55,40 L55,39 L42,39 L42,38 L30,38 L30,39 L18,39 L18,40 L12,40 L12,41 L7,41 L7,42 L3,42 L3,43 L-1,43 L-1,44 L-4,44 L-4,45 L-7,45 L-7,46 L-10,46 L-10,47 L-12,47 L-12,48 L-15,48 L-15,49 L-17,49 L-17,50 L-19,50 L-19,51 L-21,51 L-21,52 L-23,52 L-23,53 L-25,53 L-25,54 L-27,54 L-27,55 L-29,55 L-29,56 L-30,56 L-30,57 L-32,57 L-32,58 L-34,58 L-34,59 L-35,59 L-35,60 L-36,60 L-36,61 L-38,61 L-38,62 L-39,62 L-39,63 L-40,63 L-40,64 L-41,64 L-41,65 L-43,65 L-43,64 L-42,64 L-42,62 L-41,62 L-41,61 L-40,61 L-40,59 L-39,59 L-39,58 L-38,58 L-38,56 L-37,56 L-37,55 L-36,55 L-36,53 L-35,53 L-35,52 L-34,52 L-34,50 L-33,50 L-33,49 L-32,49 L-32,47 L-31,47 L-31,46 L-30,46 L-30,44 L-29,44 L-29,43 L-28,43 L-28,41 L-27,41 L-27,40 L-26,40 L-26,38 L-25,38 L-25,37 L-24,37 L-24,35 L-23,35 L-23,34 L-22,34 L-22,32 L-21,32 L-21,31 L-20,31 L-20,29 L-19,29 L-19,28 L-18,28 L-18,26 L-17,26 L-17,25 L-16,25 L-16,23 L-15,23 L-15,22 L-14,22 L-14,20 L-13,20 L-13,19 L-12,19 L-12,17 L-11,17 L-11,16 L-10,16 L-10,14 L-9,14 L-9,13 L-8,13 L-8,11 L-7,11 L-7,10 L-6,10 L-6,8 L-5,8 L-5,7 L-4,7 L-4,5 L-3,5 L-3,4 L-2,4 L-2,2 L-1,2 L-1,1 L0,1 Z " transform="translate(177,217)" style="fill: #B0B0D3;"/><path d="M0,0 L2,0 L2,1 L3,1 L3,2 L5,2 L5,3 L7,3 L7,4 L8,4 L8,5 L10,5 L10,6 L12,6 L12,7 L13,7 L13,8 L15,8 L15,9 L16,9 L16,10 L18,10 L18,11 L20,11 L20,12 L21,12 L21,13 L23,13 L23,14 L24,14 L24,15 L26,15 L26,16 L28,16 L28,17 L29,17 L29,18 L31,18 L31,19 L33,19 L33,20 L34,20 L34,21 L36,21 L36,22 L37,22 L37,23 L39,23 L39,24 L41,24 L41,25 L42,25 L42,26 L44,26 L44,27 L46,27 L46,28 L47,28 L47,29 L49,29 L49,30 L50,30 L50,31 L52,31 L52,32 L54,32 L54,33 L55,33 L55,34 L57,34 L57,35 L58,35 L58,36 L60,36 L60,37 L62,37 L62,38 L63,38 L63,39 L65,39 L65,40 L66,40 L66,41 L68,41 L68,42 L70,42 L70,43 L71,43 L71,44 L73,44 L73,45 L75,45 L75,46 L76,46 L76,47 L78,47 L78,48 L79,48 L79,49 L81,49 L81,50 L83,50 L83,51 L84,51 L84,52 L86,52 L86,53 L87,53 L87,54 L89,54 L89,55 L91,55 L91,56 L92,56 L92,57 L94,57 L94,58 L96,58 L96,73 L95,73 L95,72 L93,72 L93,71 L92,71 L92,70 L90,70 L90,69 L88,69 L88,68 L86,68 L86,67 L85,67 L85,66 L83,66 L83,65 L82,65 L82,64 L80,64 L80,63 L78,63 L78,62 L77,62 L77,61 L75,61 L75,60 L73,60 L73,59 L72,59 L72,58 L70,58 L70,57 L69,57 L69,56 L67,56 L67,55 L65,55 L65,54 L64,54 L64,53 L62,53 L62,52 L60,52 L60,51 L59,51 L59,50 L57,50 L57,49 L55,49 L55,48 L54,48 L54,47 L52,47 L52,46 L51,46 L51,45 L49,45 L49,44 L47,44 L47,43 L46,43 L46,42 L44,42 L44,41 L42,41 L42,40 L41,40 L41,39 L39,39 L39,38 L38,38 L38,37 L36,37 L36,36 L34,36 L34,35 L33,35 L33,34 L31,34 L31,33 L29,33 L29,32 L28,32 L28,31 L26,31 L26,30 L24,30 L24,29 L23,29 L23,28 L21,28 L21,27 L20,27 L20,26 L18,26 L18,25 L16,25 L16,24 L15,24 L15,23 L13,23 L13,22 L11,22 L11,21 L10,21 L10,20 L8,20 L8,19 L6,19 L6,18 L5,18 L5,17 L3,17 L3,16 L1,16 L1,15 L0,15 Z " transform="translate(14,253)" style="fill: #1ACD77;"/><path d="M0,0 L39,0 L39,1 L42,1 L42,2 L44,2 L44,3 L54,3 L54,4 L55,4 L55,6 L54,6 L54,8 L53,8 L53,9 L52,9 L52,11 L55,11 L55,12 L58,12 L58,13 L61,13 L61,14 L63,14 L63,15 L65,15 L65,19 L64,19 L64,20 L63,20 L63,21 L64,21 L64,22 L66,22 L66,23 L69,23 L69,24 L70,24 L70,26 L69,26 L69,30 L75,30 L75,31 L74,31 L74,32 L71,32 L71,33 L70,33 L70,35 L69,35 L69,34 L68,34 L68,33 L69,33 L69,32 L67,32 L67,31 L66,31 L66,25 L65,25 L65,29 L64,29 L64,30 L63,30 L63,31 L62,31 L62,29 L63,29 L63,28 L64,28 L64,26 L62,26 L62,25 L59,25 L59,27 L58,27 L58,28 L57,28 L57,29 L56,29 L56,31 L55,31 L55,32 L54,32 L54,33 L53,33 L53,34 L52,34 L52,36 L51,36 L51,37 L50,37 L50,38 L49,38 L49,40 L48,40 L48,41 L47,41 L47,42 L46,42 L46,44 L45,44 L45,45 L44,45 L44,46 L43,46 L43,48 L42,48 L42,49 L41,49 L41,50 L40,50 L40,51 L39,51 L39,53 L38,53 L38,54 L37,54 L37,55 L36,55 L36,57 L35,57 L35,58 L34,58 L34,59 L33,59 L33,61 L32,61 L32,62 L31,62 L31,63 L30,63 L30,65 L29,65 L29,66 L28,66 L28,67 L27,67 L27,69 L26,69 L26,70 L25,70 L25,71 L24,71 L24,73 L23,73 L23,74 L22,74 L22,75 L21,75 L21,76 L20,76 L20,78 L19,78 L19,79 L18,79 L18,80 L17,80 L17,82 L16,82 L16,83 L15,83 L15,84 L14,84 L14,86 L13,86 L13,87 L12,87 L12,88 L11,88 L11,90 L10,90 L10,91 L9,91 L9,92 L8,92 L8,93 L7,93 L7,95 L6,95 L6,96 L5,96 L5,97 L4,97 L4,99 L3,99 L3,100 L2,100 L2,101 L1,101 L1,103 L0,103 L0,104 L-1,104 L-1,105 L-2,105 L-2,107 L-3,107 L-3,108 L-4,108 L-4,109 L-5,109 L-5,111 L-6,111 L-6,112 L-7,112 L-7,113 L-8,113 L-8,114 L-9,114 L-9,115 L-10,115 L-10,116 L-11,116 L-11,115 L-15,115 L-15,114 L-20,114 L-20,113 L-25,113 L-25,112 L-31,112 L-31,111 L-38,111 L-38,110 L-47,110 L-47,109 L-75,109 L-75,107 L-77,107 L-77,106 L-76,106 L-76,105 L-79,105 L-79,104 L-52,104 L-52,105 L-40,105 L-40,106 L-33,106 L-33,107 L-27,107 L-27,108 L-22,108 L-22,109 L-17,109 L-17,110 L-12,110 L-12,111 L-11,111 L-11,109 L-10,109 L-10,108 L-9,108 L-9,107 L-8,107 L-8,106 L-7,106 L-7,104 L-6,104 L-6,103 L-5,103 L-5,102 L-4,102 L-4,100 L-3,100 L-3,99 L-2,99 L-2,98 L-1,98 L-1,96 L0,96 L0,95 L1,95 L1,94 L2,94 L2,92 L3,92 L3,91 L4,91 L4,90 L5,90 L5,89 L6,89 L6,87 L7,87 L7,86 L8,86 L8,85 L9,85 L9,83 L10,83 L10,82 L11,82 L11,81 L12,81 L12,79 L13,79 L13,78 L14,78 L14,77 L15,77 L15,75 L16,75 L16,74 L17,74 L17,73 L18,73 L18,71 L19,71 L19,70 L20,70 L20,69 L21,69 L21,68 L22,68 L22,66 L23,66 L23,65 L24,65 L24,64 L25,64 L25,62 L26,62 L26,61 L27,61 L27,60 L28,60 L28,58 L29,58 L29,57 L30,57 L30,56 L31,56 L31,54 L32,54 L32,53 L33,53 L33,52 L34,52 L34,50 L35,50 L35,49 L36,49 L36,48 L37,48 L37,47 L38,47 L38,45 L39,45 L39,44 L40,44 L40,43 L41,43 L41,41 L42,41 L42,40 L43,40 L43,39 L44,39 L44,37 L45,37 L45,36 L46,36 L46,35 L47,35 L47,33 L48,33 L48,32 L49,32 L49,31 L50,31 L50,29 L51,29 L51,28 L52,28 L52,27 L53,27 L53,26 L54,26 L54,24 L55,24 L55,23 L56,23 L56,22 L57,22 L57,20 L58,20 L58,19 L59,19 L59,18 L60,18 L60,17 L58,17 L58,16 L53,16 L53,15 L50,15 L50,14 L46,14 L46,13 L45,13 L45,14 L44,14 L44,15 L43,15 L43,13 L44,13 L44,12 L45,12 L45,11 L46,11 L46,10 L47,10 L47,8 L48,8 L48,6 L45,6 L45,5 L36,5 L36,4 L6,4 L6,5 L-2,5 L-2,6 L-9,6 L-9,5 L-10,5 L-10,4 L-9,4 L-9,3 L-8,3 L-8,2 L-5,2 L-5,1 L0,1 Z " transform="translate(277,163)" style="fill: #0C0C78;"/><path d="M0,0 L1,0 L1,18 L0,18 L0,20 L-1,20 L-1,21 L-2,21 L-2,22 L-3,22 L-3,24 L-4,24 L-4,25 L-5,25 L-5,27 L-6,27 L-6,28 L-7,28 L-7,29 L-8,29 L-8,31 L-9,31 L-9,32 L-10,32 L-10,34 L-11,34 L-11,35 L-12,35 L-12,36 L-13,36 L-13,37 L-14,37 L-14,39 L-15,39 L-15,40 L-16,40 L-16,42 L-17,42 L-17,43 L-18,43 L-18,44 L-19,44 L-19,46 L-20,46 L-20,47 L-21,47 L-21,48 L-22,48 L-22,50 L-23,50 L-23,51 L-24,51 L-24,53 L-25,53 L-25,54 L-26,54 L-26,55 L-27,55 L-27,57 L-28,57 L-28,58 L-29,58 L-29,59 L-30,59 L-30,61 L-31,61 L-31,62 L-32,62 L-32,63 L-33,63 L-33,65 L-34,65 L-34,66 L-35,66 L-35,68 L-36,68 L-36,69 L-37,69 L-37,70 L-38,70 L-38,72 L-39,72 L-39,73 L-40,73 L-40,74 L-41,74 L-41,76 L-42,76 L-42,77 L-43,77 L-43,78 L-44,78 L-44,80 L-45,80 L-45,81 L-46,81 L-46,83 L-47,83 L-47,84 L-48,84 L-48,85 L-49,85 L-49,87 L-50,87 L-50,88 L-51,88 L-51,89 L-52,89 L-52,91 L-53,91 L-53,92 L-54,92 L-54,93 L-55,93 L-55,95 L-56,95 L-56,96 L-57,96 L-57,97 L-58,97 L-58,99 L-59,99 L-59,100 L-60,100 L-60,102 L-61,102 L-61,103 L-62,103 L-62,104 L-63,104 L-63,106 L-64,106 L-64,107 L-65,107 L-65,109 L-66,109 L-66,110 L-67,110 L-67,111 L-68,111 L-68,113 L-69,113 L-69,114 L-70,114 L-70,115 L-71,115 L-71,117 L-72,117 L-72,118 L-73,118 L-73,119 L-74,119 L-74,105 L-73,105 L-73,104 L-72,104 L-72,103 L-71,103 L-71,101 L-70,101 L-70,100 L-69,100 L-69,98 L-68,98 L-68,97 L-67,97 L-67,96 L-66,96 L-66,94 L-65,94 L-65,93 L-64,93 L-64,91 L-63,91 L-63,90 L-62,90 L-62,88 L-61,88 L-61,87 L-60,87 L-60,86 L-59,86 L-59,84 L-58,84 L-58,83 L-57,83 L-57,81 L-56,81 L-56,80 L-55,80 L-55,78 L-54,78 L-54,77 L-53,77 L-53,76 L-52,76 L-52,74 L-51,74 L-51,73 L-50,73 L-50,72 L-49,72 L-49,70 L-48,70 L-48,68 L-47,68 L-47,67 L-46,67 L-46,66 L-45,66 L-45,64 L-44,64 L-44,63 L-43,63 L-43,61 L-42,61 L-42,60 L-41,60 L-41,59 L-40,59 L-40,57 L-39,57 L-39,55 L-38,55 L-38,54 L-37,54 L-37,53 L-36,53 L-36,52 L-35,52 L-35,50 L-34,50 L-34,49 L-33,49 L-33,47 L-32,47 L-32,46 L-31,46 L-31,44 L-30,44 L-30,43 L-29,43 L-29,41 L-28,41 L-28,40 L-27,40 L-27,39 L-26,39 L-26,37 L-25,37 L-25,36 L-24,36 L-24,34 L-23,34 L-23,33 L-22,33 L-22,31 L-21,31 L-21,30 L-20,30 L-20,28 L-19,28 L-19,27 L-18,27 L-18,26 L-17,26 L-17,24 L-16,24 L-16,23 L-15,23 L-15,21 L-14,21 L-14,20 L-13,20 L-13,18 L-12,18 L-12,17 L-11,17 L-11,16 L-10,16 L-10,14 L-9,14 L-9,13 L-8,13 L-8,11 L-7,11 L-7,10 L-6,10 L-6,9 L-5,9 L-5,7 L-4,7 L-4,6 L-3,6 L-3,4 L-2,4 L-2,3 L-1,3 L-1,1 L0,1 Z " transform="translate(358,205)" style="fill: #1ACD78;"/><path d="M0,0 L3,0 L3,1 L5,1 L5,3 L4,3 L4,4 L3,4 L3,6 L2,6 L2,7 L1,7 L1,8 L0,8 L0,10 L-1,10 L-1,11 L-2,11 L-2,12 L-3,12 L-3,13 L-4,13 L-4,15 L-5,15 L-5,16 L-6,16 L-6,17 L-7,17 L-7,19 L-8,19 L-8,20 L-9,20 L-9,21 L-10,21 L-10,23 L-11,23 L-11,24 L-12,24 L-12,25 L-13,25 L-13,27 L-14,27 L-14,28 L-15,28 L-15,29 L-16,29 L-16,31 L-17,31 L-17,32 L-18,32 L-18,33 L-19,33 L-19,35 L-20,35 L-20,36 L-21,36 L-21,37 L-22,37 L-22,38 L-23,38 L-23,40 L-24,40 L-24,41 L-25,41 L-25,42 L-26,42 L-26,44 L-27,44 L-27,45 L-28,45 L-28,46 L-29,46 L-29,48 L-30,48 L-30,49 L-31,49 L-31,50 L-32,50 L-32,52 L-33,52 L-33,53 L-34,53 L-34,54 L-35,54 L-35,56 L-36,56 L-36,57 L-37,57 L-37,58 L-38,58 L-38,60 L-39,60 L-39,61 L-40,61 L-40,62 L-41,62 L-41,63 L-42,63 L-42,65 L-43,65 L-43,66 L-44,66 L-44,67 L-45,67 L-45,69 L-46,69 L-46,70 L-47,70 L-47,71 L-48,71 L-48,73 L-49,73 L-49,74 L-50,74 L-50,75 L-51,75 L-51,77 L-52,77 L-52,78 L-53,78 L-53,79 L-54,79 L-54,81 L-55,81 L-55,82 L-56,82 L-56,83 L-57,83 L-57,84 L-58,84 L-58,86 L-59,86 L-59,87 L-60,87 L-60,88 L-61,88 L-61,90 L-62,90 L-62,91 L-63,91 L-63,92 L-64,92 L-64,94 L-65,94 L-65,95 L-66,95 L-66,96 L-67,96 L-67,98 L-69,98 L-69,97 L-74,97 L-74,96 L-78,96 L-78,95 L-83,95 L-83,94 L-88,94 L-88,93 L-95,93 L-95,92 L-102,92 L-102,91 L-111,91 L-111,90 L-123,90 L-123,89 L-151,89 L-151,90 L-160,90 L-160,91 L-168,91 L-168,92 L-173,92 L-173,93 L-179,93 L-179,94 L-181,94 L-181,95 L-185,95 L-185,96 L-188,96 L-188,95 L-186,95 L-186,94 L-183,94 L-183,93 L-180,93 L-180,92 L-177,92 L-177,91 L-174,91 L-174,90 L-171,90 L-171,89 L-167,89 L-167,88 L-163,88 L-163,87 L-158,87 L-158,86 L-152,86 L-152,85 L-145,85 L-145,84 L-106,84 L-106,85 L-97,85 L-97,86 L-90,86 L-90,87 L-84,87 L-84,88 L-79,88 L-79,89 L-74,89 L-74,90 L-70,90 L-70,91 L-69,91 L-69,90 L-68,90 L-68,89 L-67,89 L-67,88 L-66,88 L-66,87 L-65,87 L-65,86 L-64,86 L-64,84 L-63,84 L-63,83 L-62,83 L-62,82 L-61,82 L-61,80 L-60,80 L-60,79 L-59,79 L-59,78 L-58,78 L-58,76 L-57,76 L-57,75 L-56,75 L-56,74 L-55,74 L-55,72 L-54,72 L-54,71 L-53,71 L-53,70 L-52,70 L-52,68 L-51,68 L-51,67 L-50,67 L-50,66 L-49,66 L-49,65 L-48,65 L-48,63 L-47,63 L-47,62 L-46,62 L-46,61 L-45,61 L-45,59 L-44,59 L-44,58 L-43,58 L-43,57 L-42,57 L-42,55 L-41,55 L-41,54 L-40,54 L-40,53 L-39,53 L-39,51 L-38,51 L-38,50 L-37,50 L-37,49 L-36,49 L-36,48 L-35,48 L-35,46 L-34,46 L-34,45 L-33,45 L-33,44 L-32,44 L-32,42 L-31,42 L-31,41 L-30,41 L-30,40 L-29,40 L-29,38 L-28,38 L-28,37 L-27,37 L-27,36 L-26,36 L-26,34 L-25,34 L-25,33 L-24,33 L-24,32 L-23,32 L-23,30 L-22,30 L-22,29 L-21,29 L-21,28 L-20,28 L-20,26 L-19,26 L-19,25 L-18,25 L-18,24 L-17,24 L-17,23 L-16,23 L-16,21 L-15,21 L-15,20 L-14,20 L-14,19 L-13,19 L-13,17 L-12,17 L-12,16 L-11,16 L-11,15 L-10,15 L-10,13 L-9,13 L-9,12 L-8,12 L-8,11 L-7,11 L-7,9 L-6,9 L-6,8 L-5,8 L-5,7 L-4,7 L-4,6 L-3,6 L-3,4 L-2,4 L-2,3 L-1,3 L-1,2 L0,2 Z " transform="translate(336,188)" style="fill: #B0B0D3;"/><path d="M0,0 L9,0 L9,1 L16,1 L16,2 L20,2 L20,3 L24,3 L24,4 L27,4 L27,5 L29,5 L29,6 L32,6 L32,7 L34,7 L34,8 L36,8 L36,9 L38,9 L38,10 L40,10 L40,11 L42,11 L42,12 L43,12 L43,13 L45,13 L45,14 L46,14 L46,15 L48,15 L48,16 L49,16 L49,17 L50,17 L50,18 L51,18 L51,19 L53,19 L53,20 L54,20 L54,21 L55,21 L55,22 L56,22 L56,23 L57,23 L57,24 L58,24 L58,25 L59,25 L59,26 L60,26 L60,27 L61,27 L61,29 L62,29 L62,30 L63,30 L63,31 L64,31 L64,33 L65,33 L65,34 L66,34 L66,35 L67,35 L67,37 L68,37 L68,39 L69,39 L69,40 L70,40 L70,42 L71,42 L71,44 L72,44 L72,46 L73,46 L73,48 L74,48 L74,50 L75,50 L75,53 L76,53 L76,56 L77,56 L77,58 L78,58 L78,62 L79,62 L79,65 L80,65 L80,69 L81,69 L81,73 L82,73 L82,78 L83,78 L83,84 L84,84 L84,86 L83,86 L83,87 L82,87 L82,82 L81,82 L81,79 L80,79 L80,75 L79,75 L79,72 L78,72 L78,69 L77,69 L77,67 L76,67 L76,64 L75,64 L75,62 L74,62 L74,60 L73,60 L73,58 L72,58 L72,56 L71,56 L71,54 L70,54 L70,53 L69,53 L69,51 L68,51 L68,49 L67,49 L67,48 L66,48 L66,47 L65,47 L65,45 L64,45 L64,44 L63,44 L63,43 L62,43 L62,41 L61,41 L61,40 L60,40 L60,39 L59,39 L59,38 L58,38 L58,37 L57,37 L57,36 L56,36 L56,35 L55,35 L55,34 L54,34 L54,33 L53,33 L53,32 L52,32 L52,31 L50,31 L50,30 L49,30 L49,29 L48,29 L48,28 L47,28 L47,27 L45,27 L45,26 L44,26 L44,25 L42,25 L42,24 L41,24 L41,23 L39,23 L39,22 L37,22 L37,21 L35,21 L35,20 L34,20 L34,19 L31,19 L31,18 L29,18 L29,17 L27,17 L27,16 L25,16 L25,15 L22,15 L22,14 L19,14 L19,13 L16,13 L16,12 L12,12 L12,11 L8,11 L8,10 L2,10 L2,9 L-5,9 L-5,8 L-7,8 L-7,7 L-6,7 L-6,6 L-5,6 L-5,5 L-4,5 L-4,4 L-3,4 L-3,3 L-2,3 L-2,2 L-1,2 L-1,1 L0,1 Z " transform="translate(31,217)" style="fill: #B4B4D5;"/><path d="M0,0 L6,0 L6,2 L7,2 L7,3 L8,3 L8,5 L9,5 L9,6 L10,6 L10,7 L12,7 L12,8 L14,8 L14,9 L16,9 L16,10 L28,10 L28,11 L129,11 L129,12 L164,12 L164,17 L132,17 L132,16 L49,16 L49,15 L0,15 Z " transform="translate(115,313)" style="fill: #369383;"/><path d="M0,0 L5,0 L5,1 L4,1 L4,2 L3,2 L3,3 L2,3 L2,5 L1,5 L1,6 L0,6 L0,7 L-1,7 L-1,9 L-2,9 L-2,10 L-3,10 L-3,11 L-4,11 L-4,12 L-5,12 L-5,14 L-6,14 L-6,15 L-7,15 L-7,16 L-8,16 L-8,18 L-9,18 L-9,19 L-10,19 L-10,20 L-11,20 L-11,22 L-12,22 L-12,23 L-13,23 L-13,24 L-14,24 L-14,26 L-15,26 L-15,27 L-16,27 L-16,28 L-17,28 L-17,30 L-18,30 L-18,31 L-19,31 L-19,32 L-20,32 L-20,33 L-21,33 L-21,35 L-22,35 L-22,36 L-23,36 L-23,37 L-24,37 L-24,39 L-25,39 L-25,40 L-26,40 L-26,41 L-27,41 L-27,43 L-28,43 L-28,44 L-29,44 L-29,45 L-30,45 L-30,47 L-31,47 L-31,48 L-32,48 L-32,49 L-33,49 L-33,51 L-34,51 L-34,52 L-35,52 L-35,53 L-36,53 L-36,54 L-37,54 L-37,56 L-38,56 L-38,57 L-39,57 L-39,58 L-40,58 L-40,60 L-41,60 L-41,61 L-42,61 L-42,62 L-43,62 L-43,64 L-44,64 L-44,65 L-45,65 L-45,66 L-46,66 L-46,68 L-47,68 L-47,69 L-48,69 L-48,70 L-49,70 L-49,72 L-50,72 L-50,73 L-51,73 L-51,74 L-52,74 L-52,75 L-53,75 L-53,77 L-54,77 L-54,78 L-55,78 L-55,79 L-56,79 L-56,81 L-57,81 L-57,82 L-58,82 L-58,83 L-59,83 L-59,85 L-60,85 L-60,86 L-61,86 L-61,87 L-62,87 L-62,89 L-63,89 L-63,90 L-64,90 L-64,91 L-65,91 L-65,92 L-66,92 L-66,94 L-67,94 L-67,93 L-72,93 L-72,92 L-77,92 L-77,91 L-82,91 L-82,90 L-88,90 L-88,89 L-95,89 L-95,88 L-107,88 L-107,87 L-136,87 L-136,88 L-146,88 L-146,89 L-152,89 L-152,90 L-157,90 L-157,91 L-162,91 L-162,92 L-166,92 L-166,91 L-163,91 L-163,90 L-159,90 L-159,89 L-156,89 L-156,88 L-151,88 L-151,87 L-146,87 L-146,86 L-141,86 L-141,85 L-133,85 L-133,84 L-106,84 L-106,85 L-99,85 L-99,86 L-93,86 L-93,87 L-87,87 L-87,88 L-81,88 L-81,89 L-77,89 L-77,90 L-74,90 L-74,89 L-71,89 L-71,88 L-69,88 L-69,87 L-67,87 L-67,85 L-66,85 L-66,84 L-65,84 L-65,83 L-64,83 L-64,82 L-63,82 L-63,80 L-62,80 L-62,79 L-61,79 L-61,78 L-60,78 L-60,76 L-59,76 L-59,75 L-58,75 L-58,74 L-57,74 L-57,73 L-56,73 L-56,71 L-55,71 L-55,70 L-54,70 L-54,69 L-53,69 L-53,68 L-52,68 L-52,66 L-51,66 L-51,65 L-50,65 L-50,64 L-49,64 L-49,63 L-48,63 L-48,61 L-47,61 L-47,60 L-46,60 L-46,59 L-45,59 L-45,57 L-44,57 L-44,56 L-43,56 L-43,55 L-42,55 L-42,54 L-41,54 L-41,52 L-40,52 L-40,51 L-39,51 L-39,50 L-38,50 L-38,49 L-37,49 L-37,47 L-36,47 L-36,46 L-35,46 L-35,45 L-34,45 L-34,44 L-33,44 L-33,42 L-32,42 L-32,41 L-31,41 L-31,40 L-30,40 L-30,38 L-29,38 L-29,37 L-28,37 L-28,36 L-27,36 L-27,35 L-26,35 L-26,33 L-25,33 L-25,32 L-24,32 L-24,31 L-23,31 L-23,30 L-22,30 L-22,28 L-21,28 L-21,27 L-20,27 L-20,26 L-19,26 L-19,25 L-18,25 L-18,23 L-17,23 L-17,22 L-16,22 L-16,21 L-15,21 L-15,19 L-14,19 L-14,18 L-13,18 L-13,17 L-12,17 L-12,16 L-11,16 L-11,14 L-10,14 L-10,13 L-9,13 L-9,12 L-8,12 L-8,11 L-7,11 L-7,9 L-6,9 L-6,8 L-5,8 L-5,7 L-4,7 L-4,5 L-3,5 L-3,4 L-2,4 L-2,3 L-1,3 L-1,2 L0,2 Z " transform="translate(332,180)" style="fill: #FAFAFC;"/><path d="M0,0 L5,0 L5,1 L6,1 L6,2 L7,2 L7,4 L8,4 L8,6 L9,6 L9,12 L11,12 L11,13 L14,13 L14,14 L18,14 L18,15 L22,15 L22,14 L23,14 L23,13 L24,13 L24,12 L25,12 L25,11 L26,11 L26,10 L28,10 L28,9 L32,9 L32,10 L35,10 L35,11 L36,11 L36,12 L37,12 L37,17 L36,17 L36,18 L35,18 L35,19 L34,19 L34,20 L23,20 L23,21 L22,21 L22,24 L21,24 L21,27 L20,27 L20,30 L19,30 L19,29 L17,29 L17,30 L16,30 L16,32 L15,32 L15,36 L14,36 L14,41 L13,41 L13,43 L11,43 L11,42 L7,42 L7,41 L3,41 L3,39 L4,39 L4,37 L5,37 L5,33 L6,33 L6,30 L7,30 L7,26 L8,26 L8,21 L9,21 L9,15 L8,15 L8,16 L6,16 L6,15 L5,15 L5,14 L2,14 L2,13 L0,13 L0,12 L-1,12 L-1,11 L-2,11 L-2,10 L-3,10 L-3,8 L-4,8 L-4,4 L-3,4 L-3,2 L-2,2 L-2,1 L0,1 Z " transform="translate(185,119)" style="fill: #07076F;"/><path d="M0,0 L1,0 L1,1 L3,1 L3,3 L2,3 L2,4 L1,4 L1,6 L0,6 L0,7 L-1,7 L-1,8 L-2,8 L-2,10 L-3,10 L-3,11 L-4,11 L-4,12 L-5,12 L-5,13 L-6,13 L-6,15 L-7,15 L-7,16 L-8,16 L-8,17 L-9,17 L-9,19 L-10,19 L-10,20 L-11,20 L-11,21 L-12,21 L-12,23 L-13,23 L-13,24 L-14,24 L-14,25 L-15,25 L-15,27 L-16,27 L-16,28 L-17,28 L-17,29 L-18,29 L-18,31 L-19,31 L-19,32 L-20,32 L-20,33 L-21,33 L-21,35 L-22,35 L-22,36 L-23,36 L-23,37 L-24,37 L-24,38 L-25,38 L-25,40 L-26,40 L-26,41 L-27,41 L-27,42 L-28,42 L-28,44 L-29,44 L-29,45 L-30,45 L-30,46 L-31,46 L-31,48 L-32,48 L-32,49 L-33,49 L-33,50 L-34,50 L-34,52 L-35,52 L-35,53 L-36,53 L-36,54 L-37,54 L-37,56 L-38,56 L-38,57 L-39,57 L-39,58 L-40,58 L-40,60 L-41,60 L-41,61 L-42,61 L-42,62 L-43,62 L-43,63 L-44,63 L-44,65 L-45,65 L-45,66 L-46,66 L-46,67 L-47,67 L-47,69 L-48,69 L-48,70 L-49,70 L-49,71 L-50,71 L-50,73 L-51,73 L-51,74 L-52,74 L-52,75 L-53,75 L-53,77 L-54,77 L-54,78 L-55,78 L-55,79 L-56,79 L-56,81 L-57,81 L-57,82 L-58,82 L-58,83 L-59,83 L-59,84 L-60,84 L-60,86 L-61,86 L-61,87 L-62,87 L-62,88 L-63,88 L-63,90 L-64,90 L-64,91 L-65,91 L-65,92 L-66,92 L-66,94 L-67,94 L-67,95 L-68,95 L-68,96 L-69,96 L-69,98 L-71,98 L-71,97 L-76,97 L-76,96 L-80,96 L-80,95 L-85,95 L-85,94 L-90,94 L-90,93 L-97,93 L-97,92 L-104,92 L-104,91 L-113,91 L-113,90 L-125,90 L-125,89 L-153,89 L-153,90 L-162,90 L-162,91 L-170,91 L-170,92 L-175,92 L-175,93 L-181,93 L-181,94 L-183,94 L-183,95 L-187,95 L-187,96 L-190,96 L-190,95 L-188,95 L-188,94 L-185,94 L-185,93 L-182,93 L-182,92 L-179,92 L-179,91 L-176,91 L-176,90 L-173,90 L-173,89 L-169,89 L-169,88 L-165,88 L-165,87 L-150,87 L-150,86 L-130,86 L-130,87 L-115,87 L-115,88 L-106,88 L-106,89 L-99,89 L-99,90 L-94,90 L-94,91 L-88,91 L-88,92 L-83,92 L-83,93 L-78,93 L-78,94 L-70,94 L-70,93 L-68,93 L-68,91 L-67,91 L-67,90 L-66,90 L-66,89 L-65,89 L-65,87 L-64,87 L-64,86 L-63,86 L-63,85 L-62,85 L-62,83 L-61,83 L-61,82 L-60,82 L-60,81 L-59,81 L-59,79 L-58,79 L-58,78 L-57,78 L-57,77 L-56,77 L-56,76 L-55,76 L-55,74 L-54,74 L-54,73 L-53,73 L-53,72 L-52,72 L-52,70 L-51,70 L-51,69 L-50,69 L-50,68 L-49,68 L-49,66 L-48,66 L-48,65 L-47,65 L-47,64 L-46,64 L-46,62 L-45,62 L-45,61 L-44,61 L-44,60 L-43,60 L-43,58 L-42,58 L-42,57 L-41,57 L-41,56 L-40,56 L-40,55 L-39,55 L-39,53 L-38,53 L-38,52 L-37,52 L-37,51 L-36,51 L-36,49 L-35,49 L-35,48 L-34,48 L-34,47 L-33,47 L-33,45 L-32,45 L-32,44 L-31,44 L-31,43 L-30,43 L-30,41 L-29,41 L-29,40 L-28,40 L-28,39 L-27,39 L-27,37 L-26,37 L-26,36 L-25,36 L-25,35 L-24,35 L-24,33 L-23,33 L-23,32 L-22,32 L-22,31 L-21,31 L-21,30 L-20,30 L-20,28 L-19,28 L-19,27 L-18,27 L-18,26 L-17,26 L-17,24 L-16,24 L-16,23 L-15,23 L-15,22 L-14,22 L-14,20 L-13,20 L-13,19 L-12,19 L-12,18 L-11,18 L-11,16 L-10,16 L-10,15 L-9,15 L-9,14 L-8,14 L-8,12 L-7,12 L-7,11 L-6,11 L-6,10 L-5,10 L-5,8 L-4,8 L-4,7 L-3,7 L-3,6 L-2,6 L-2,5 L-1,5 L-1,3 L0,3 Z " transform="translate(338,188)" style="fill: #F6F6F9;"/><path d="M0,0 L4,0 L4,1 L8,1 L8,2 L11,2 L11,3 L14,3 L14,4 L17,4 L17,5 L20,5 L20,6 L23,6 L23,7 L25,7 L25,8 L27,8 L27,9 L29,9 L29,10 L32,10 L32,11 L34,11 L34,12 L36,12 L36,13 L37,13 L37,14 L39,14 L39,15 L41,15 L41,16 L43,16 L43,17 L44,17 L44,18 L46,18 L46,19 L47,19 L47,20 L49,20 L49,21 L50,21 L50,22 L52,22 L52,23 L53,23 L53,24 L54,24 L54,25 L56,25 L56,26 L57,26 L57,27 L58,27 L58,28 L60,28 L60,29 L61,29 L61,30 L62,30 L62,31 L63,31 L63,32 L64,32 L64,33 L65,33 L65,34 L67,34 L67,35 L68,35 L68,36 L69,36 L69,37 L70,37 L70,38 L71,38 L71,39 L72,39 L72,40 L73,40 L73,41 L74,41 L74,42 L75,42 L75,43 L76,43 L76,45 L77,45 L77,46 L78,46 L78,47 L79,47 L79,48 L80,48 L80,49 L81,49 L81,50 L79,50 L79,49 L78,49 L78,48 L76,48 L76,47 L75,47 L75,46 L73,46 L73,45 L71,45 L71,44 L70,44 L70,43 L68,43 L68,42 L66,42 L66,41 L65,41 L65,40 L63,40 L63,39 L62,39 L62,38 L60,38 L60,37 L58,37 L58,36 L57,36 L57,35 L55,35 L55,34 L54,34 L54,33 L52,33 L52,32 L50,32 L50,31 L49,31 L49,30 L47,30 L47,29 L46,29 L46,28 L44,28 L44,27 L42,27 L42,26 L41,26 L41,25 L39,25 L39,24 L37,24 L37,23 L36,23 L36,22 L34,22 L34,21 L33,21 L33,20 L31,20 L31,19 L29,19 L29,18 L28,18 L28,17 L26,17 L26,16 L25,16 L25,15 L23,15 L23,14 L21,14 L21,13 L20,13 L20,12 L18,12 L18,11 L16,11 L16,10 L15,10 L15,9 L13,9 L13,8 L12,8 L12,7 L10,7 L10,6 L8,6 L8,5 L7,5 L7,4 L5,4 L5,3 L4,3 L4,2 L2,2 L2,1 L0,1 Z " transform="translate(21,251)" style="fill: #AEAFD2;"/><path d="M0,0 L2,0 L2,1 L3,1 L3,2 L5,2 L5,3 L7,3 L7,4 L8,4 L8,5 L10,5 L10,6 L11,6 L11,7 L13,7 L13,8 L15,8 L15,9 L16,9 L16,10 L18,10 L18,11 L20,11 L20,12 L21,12 L21,13 L23,13 L23,14 L24,14 L24,15 L26,15 L26,16 L28,16 L28,17 L30,17 L30,18 L31,18 L31,19 L33,19 L33,20 L34,20 L34,21 L36,21 L36,22 L38,22 L38,23 L39,23 L39,24 L41,24 L41,25 L42,25 L42,26 L44,26 L44,27 L46,27 L46,28 L47,28 L47,29 L49,29 L49,30 L51,30 L51,31 L52,31 L52,32 L54,32 L54,33 L55,33 L55,34 L57,34 L57,35 L59,35 L59,36 L61,36 L61,37 L62,37 L62,38 L64,38 L64,39 L65,39 L65,40 L67,40 L67,41 L69,41 L69,42 L71,42 L71,43 L72,43 L72,44 L73,44 L73,45 L75,45 L75,46 L77,46 L77,47 L79,47 L79,48 L80,48 L80,49 L82,49 L82,50 L87,50 L87,48 L88,48 L88,47 L90,47 L90,45 L91,45 L91,46 L92,46 L92,47 L94,47 L94,48 L96,48 L96,63 L95,63 L95,62 L93,62 L93,61 L92,61 L92,60 L90,60 L90,59 L88,59 L88,58 L86,58 L86,57 L85,57 L85,56 L83,56 L83,55 L82,55 L82,54 L80,54 L80,53 L78,53 L78,52 L77,52 L77,51 L75,51 L75,50 L73,50 L73,49 L72,49 L72,48 L70,48 L70,47 L69,47 L69,46 L67,46 L67,45 L65,45 L65,44 L64,44 L64,43 L62,43 L62,42 L60,42 L60,41 L59,41 L59,40 L57,40 L57,39 L55,39 L55,38 L54,38 L54,37 L52,37 L52,36 L51,36 L51,35 L49,35 L49,34 L47,34 L47,33 L46,33 L46,32 L44,32 L44,31 L42,31 L42,30 L41,30 L41,29 L39,29 L39,28 L38,28 L38,27 L36,27 L36,26 L34,26 L34,25 L33,25 L33,24 L31,24 L31,23 L29,23 L29,22 L28,22 L28,21 L26,21 L26,20 L24,20 L24,19 L23,19 L23,18 L21,18 L21,17 L20,17 L20,16 L18,16 L18,15 L16,15 L16,14 L15,14 L15,13 L13,13 L13,12 L11,12 L11,11 L10,11 L10,10 L8,10 L8,9 L6,9 L6,8 L5,8 L5,7 L3,7 L3,6 L1,6 L1,5 L0,5 Z " transform="translate(14,263)" style="fill: #369383;"/><path d="M0,0 L7,0 L7,1 L13,1 L13,2 L18,2 L18,3 L22,3 L22,4 L25,4 L25,5 L28,5 L28,6 L31,6 L31,7 L34,7 L34,8 L36,8 L36,9 L38,9 L38,10 L40,10 L40,11 L42,11 L42,12 L44,12 L44,13 L46,13 L46,14 L48,14 L48,15 L49,15 L49,16 L51,16 L51,17 L52,17 L52,18 L53,18 L53,19 L55,19 L55,20 L56,20 L56,21 L57,21 L57,22 L58,22 L58,23 L60,23 L60,24 L61,24 L61,25 L62,25 L62,26 L63,26 L63,27 L64,27 L64,28 L65,28 L65,29 L66,29 L66,31 L67,31 L67,32 L68,32 L68,33 L69,33 L69,34 L70,34 L70,36 L71,36 L71,37 L72,37 L72,38 L73,38 L73,40 L74,40 L74,42 L75,42 L75,43 L76,43 L76,45 L77,45 L77,47 L78,47 L78,49 L79,49 L79,51 L80,51 L80,53 L81,53 L81,55 L80,55 L80,54 L79,54 L79,52 L78,52 L78,51 L77,51 L77,49 L76,49 L76,48 L75,48 L75,47 L74,47 L74,45 L73,45 L73,44 L72,44 L72,43 L71,43 L71,42 L70,42 L70,41 L69,41 L69,40 L68,40 L68,39 L67,39 L67,38 L66,38 L66,37 L65,37 L65,36 L64,36 L64,35 L63,35 L63,34 L62,34 L62,33 L61,33 L61,32 L60,32 L60,31 L58,31 L58,30 L57,30 L57,29 L56,29 L56,28 L55,28 L55,27 L53,27 L53,26 L52,26 L52,25 L50,25 L50,24 L49,24 L49,23 L47,23 L47,22 L46,22 L46,21 L44,21 L44,20 L42,20 L42,19 L40,19 L40,18 L38,18 L38,17 L36,17 L36,16 L34,16 L34,15 L32,15 L32,14 L30,14 L30,13 L27,13 L27,12 L24,12 L24,11 L22,11 L22,10 L19,10 L19,9 L15,9 L15,8 L11,8 L11,7 L7,7 L7,6 L1,6 L1,5 L-3,5 L-3,4 L-2,4 L-2,3 L-1,3 L-1,2 L0,2 Z " transform="translate(22,230)" style="fill: #AFAFD2;"/><path d="M0,0 L5,0 L5,1 L7,1 L7,2 L8,2 L8,3 L9,3 L9,4 L10,4 L10,5 L11,5 L11,6 L12,6 L12,7 L13,7 L13,9 L14,9 L14,10 L15,10 L15,12 L16,12 L16,14 L17,14 L17,17 L18,17 L18,20 L19,20 L19,31 L18,31 L18,32 L17,32 L17,33 L16,33 L16,34 L10,34 L10,33 L8,33 L8,32 L7,32 L7,31 L5,31 L5,30 L4,30 L4,28 L3,28 L3,27 L2,27 L2,26 L1,26 L1,24 L0,24 L0,23 L-1,23 L-1,20 L-2,20 L-2,18 L-3,18 L-3,15 L-4,15 L-4,11 L-5,11 L-5,5 L-4,5 L-4,3 L-3,3 L-3,2 L-2,2 L-2,1 L0,1 Z " transform="translate(168,40)" style="fill: #0B0B74;"/><path d="M0,0 L6,0 L6,1 L8,1 L8,2 L9,2 L9,3 L10,3 L10,11 L9,11 L9,14 L8,14 L8,15 L7,15 L7,17 L6,17 L6,18 L5,18 L5,20 L4,20 L4,21 L3,21 L3,22 L2,22 L2,23 L1,23 L1,24 L0,24 L0,25 L-2,25 L-2,26 L-3,26 L-3,27 L-4,27 L-4,28 L-6,28 L-6,29 L-8,29 L-8,30 L-16,30 L-16,29 L-17,29 L-17,28 L-18,28 L-18,26 L-19,26 L-19,21 L-18,21 L-18,18 L-17,18 L-17,17 L-16,17 L-16,15 L-15,15 L-15,13 L-14,13 L-14,12 L-13,12 L-13,10 L-12,10 L-12,9 L-11,9 L-11,8 L-10,8 L-10,7 L-9,7 L-9,6 L-8,6 L-8,5 L-6,5 L-6,4 L-5,4 L-5,3 L-3,3 L-3,2 L-2,2 L-2,1 L0,1 Z " transform="translate(244,51)" style="fill: #101073;"/><path d="M0,0 L5,0 L5,1 L9,1 L9,2 L12,2 L12,3 L13,3 L13,4 L15,4 L15,5 L17,5 L17,6 L18,6 L18,7 L20,7 L20,8 L21,8 L21,9 L22,9 L22,10 L23,10 L23,11 L24,11 L24,12 L25,12 L25,13 L26,13 L26,15 L27,15 L27,17 L28,17 L28,22 L27,22 L27,24 L26,24 L26,25 L25,25 L25,26 L15,26 L15,25 L13,25 L13,24 L10,24 L10,23 L8,23 L8,22 L7,22 L7,21 L6,21 L6,20 L4,20 L4,19 L3,19 L3,18 L2,18 L2,17 L1,17 L1,16 L0,16 L0,15 L-1,15 L-1,14 L-2,14 L-2,13 L-3,13 L-3,11 L-4,11 L-4,9 L-5,9 L-5,5 L-4,5 L-4,3 L-3,3 L-3,2 L-2,2 L-2,1 L0,1 Z " transform="translate(122,78)" style="fill: #0A0A73;"/><path d="M0,0 L12,0 L12,1 L14,1 L14,2 L15,2 L15,4 L16,4 L16,10 L15,10 L15,11 L14,11 L14,13 L12,13 L12,14 L11,14 L11,15 L10,15 L10,16 L8,16 L8,17 L6,17 L6,18 L4,18 L4,19 L0,19 L0,20 L-3,20 L-3,21 L-15,21 L-15,20 L-16,20 L-16,19 L-18,19 L-18,17 L-19,17 L-19,11 L-18,11 L-18,9 L-17,9 L-17,8 L-16,8 L-16,7 L-14,7 L-14,6 L-13,6 L-13,5 L-11,5 L-11,4 L-9,4 L-9,3 L-7,3 L-7,2 L-5,2 L-5,1 L0,1 Z " transform="translate(274,97)" style="fill: #0C0B71;"/><path d="M0,0 L1,0 L1,4 L2,4 L2,23 L1,23 L1,27 L0,27 L0,30 L-1,30 L-1,32 L-2,32 L-2,34 L-3,34 L-3,35 L-4,35 L-4,37 L-5,37 L-5,38 L-6,38 L-6,39 L-7,39 L-7,40 L-9,40 L-9,41 L-10,41 L-10,42 L-11,42 L-11,43 L-12,43 L-12,44 L-13,44 L-13,45 L-14,45 L-14,46 L-15,46 L-15,47 L-16,47 L-16,48 L-17,48 L-17,50 L-18,50 L-18,51 L-19,51 L-19,52 L-20,52 L-20,53 L-21,53 L-21,54 L-22,54 L-22,53 L-24,53 L-24,52 L-26,52 L-26,51 L-28,51 L-28,50 L-30,50 L-30,49 L-33,49 L-33,48 L-34,48 L-34,43 L-33,43 L-33,41 L-30,41 L-30,40 L-28,40 L-28,39 L-26,39 L-26,38 L-24,38 L-24,37 L-22,37 L-22,36 L-20,36 L-20,35 L-19,35 L-19,34 L-18,34 L-18,33 L-16,33 L-16,32 L-15,32 L-15,31 L-14,31 L-14,30 L-13,30 L-13,29 L-12,29 L-12,28 L-11,28 L-11,27 L-10,27 L-10,26 L-9,26 L-9,25 L-8,25 L-8,24 L-7,24 L-7,23 L-6,23 L-6,21 L-5,21 L-5,20 L-4,20 L-4,18 L-3,18 L-3,16 L-2,16 L-2,13 L-1,13 L-1,10 L0,10 Z " transform="translate(236,115)" style="fill: #B2993B;"/><path d="M0,0 L6,0 L6,1 L10,1 L10,2 L14,2 L14,3 L17,3 L17,4 L20,4 L20,5 L23,5 L23,6 L25,6 L25,7 L28,7 L28,8 L30,8 L30,9 L32,9 L32,10 L34,10 L34,11 L36,11 L36,12 L38,12 L38,13 L40,13 L40,14 L42,14 L42,15 L43,15 L43,16 L45,16 L45,17 L46,17 L46,18 L48,18 L48,19 L49,19 L49,20 L51,20 L51,21 L52,21 L52,22 L53,22 L53,23 L54,23 L54,24 L56,24 L56,25 L57,25 L57,26 L58,26 L58,27 L59,27 L59,28 L60,28 L60,29 L61,29 L61,30 L62,30 L62,31 L63,31 L63,32 L64,32 L64,33 L65,33 L65,34 L66,34 L66,35 L67,35 L67,37 L68,37 L68,38 L69,38 L69,39 L70,39 L70,40 L71,40 L71,42 L72,42 L72,43 L73,43 L73,45 L74,45 L74,46 L75,46 L75,48 L76,48 L76,49 L77,49 L77,51 L76,51 L76,50 L75,50 L75,49 L74,49 L74,48 L73,48 L73,47 L72,47 L72,46 L71,46 L71,45 L70,45 L70,44 L69,44 L69,43 L68,43 L68,42 L67,42 L67,41 L66,41 L66,40 L65,40 L65,39 L64,39 L64,38 L63,38 L63,37 L61,37 L61,36 L60,36 L60,35 L59,35 L59,34 L58,34 L58,33 L56,33 L56,32 L55,32 L55,31 L54,31 L54,30 L52,30 L52,29 L51,29 L51,28 L50,28 L50,27 L48,27 L48,26 L47,26 L47,25 L45,25 L45,24 L43,24 L43,23 L42,23 L42,22 L40,22 L40,21 L38,21 L38,20 L37,20 L37,19 L35,19 L35,18 L33,18 L33,17 L31,17 L31,16 L29,16 L29,15 L27,15 L27,14 L24,14 L24,13 L22,13 L22,12 L19,12 L19,11 L17,11 L17,10 L14,10 L14,9 L11,9 L11,8 L7,8 L7,7 L4,7 L4,6 L-1,6 L-1,5 L-3,5 L-3,3 L-2,3 L-2,2 L-1,2 L-1,1 L0,1 Z " transform="translate(24,241)" style="fill: #B0B0D2;"/><path d="M0,0 L1,0 L1,18 L0,18 L0,20 L-1,20 L-1,21 L-2,21 L-2,22 L-3,22 L-3,24 L-4,24 L-4,25 L-5,25 L-5,27 L-6,27 L-6,28 L-7,28 L-7,29 L-8,29 L-8,31 L-9,31 L-9,32 L-10,32 L-10,34 L-11,34 L-11,35 L-12,35 L-12,36 L-13,36 L-13,37 L-14,37 L-14,39 L-15,39 L-15,40 L-16,40 L-16,42 L-17,42 L-17,43 L-18,43 L-18,44 L-19,44 L-19,46 L-20,46 L-20,47 L-21,47 L-21,48 L-22,48 L-22,50 L-23,50 L-23,51 L-24,51 L-24,53 L-25,53 L-25,54 L-26,54 L-26,55 L-27,55 L-27,57 L-28,57 L-28,58 L-29,58 L-29,59 L-30,59 L-30,61 L-31,61 L-31,62 L-32,62 L-32,63 L-33,63 L-33,65 L-34,65 L-34,66 L-35,66 L-35,68 L-36,68 L-36,69 L-37,69 L-37,70 L-38,70 L-38,72 L-39,72 L-39,73 L-40,73 L-40,74 L-41,74 L-41,76 L-42,76 L-42,77 L-43,77 L-43,78 L-44,78 L-44,80 L-45,80 L-45,81 L-46,81 L-46,83 L-47,83 L-47,84 L-48,84 L-48,85 L-49,85 L-49,87 L-50,87 L-50,88 L-51,88 L-51,89 L-52,89 L-52,91 L-53,91 L-53,92 L-54,92 L-54,93 L-55,93 L-55,95 L-56,95 L-56,96 L-57,96 L-57,97 L-58,97 L-58,99 L-59,99 L-59,100 L-60,100 L-60,102 L-61,102 L-61,103 L-62,103 L-62,104 L-63,104 L-63,106 L-64,106 L-64,107 L-65,107 L-65,109 L-66,109 L-66,110 L-67,110 L-67,111 L-68,111 L-68,113 L-69,113 L-69,114 L-70,114 L-70,115 L-71,115 L-71,117 L-72,117 L-72,118 L-73,118 L-73,119 L-74,119 L-74,115 L-73,115 L-73,114 L-72,114 L-72,113 L-71,113 L-71,111 L-70,111 L-70,110 L-69,110 L-69,108 L-68,108 L-68,107 L-67,107 L-67,104 L-65,104 L-65,103 L-64,103 L-64,101 L-63,101 L-63,100 L-62,100 L-62,99 L-61,99 L-61,97 L-60,97 L-60,96 L-59,96 L-59,95 L-58,95 L-58,93 L-57,93 L-57,92 L-56,92 L-56,91 L-55,91 L-55,90 L-54,90 L-54,88 L-53,88 L-53,87 L-52,87 L-52,85 L-51,85 L-51,84 L-50,84 L-50,83 L-49,83 L-49,81 L-48,81 L-48,80 L-47,80 L-47,78 L-46,78 L-46,77 L-45,77 L-45,76 L-44,76 L-44,74 L-43,74 L-43,73 L-42,73 L-42,72 L-41,72 L-41,70 L-40,70 L-40,69 L-39,69 L-39,67 L-38,67 L-38,66 L-37,66 L-37,65 L-36,65 L-36,64 L-35,64 L-35,62 L-34,62 L-34,61 L-33,61 L-33,59 L-32,59 L-32,58 L-31,58 L-31,56 L-30,56 L-30,55 L-29,55 L-29,54 L-28,54 L-28,53 L-27,53 L-27,51 L-26,51 L-26,50 L-25,50 L-25,48 L-24,48 L-24,47 L-23,47 L-23,46 L-22,46 L-22,44 L-21,44 L-21,43 L-20,43 L-20,41 L-19,41 L-19,40 L-18,40 L-18,39 L-17,39 L-17,38 L-16,38 L-16,36 L-15,36 L-15,35 L-14,35 L-14,33 L-13,33 L-13,32 L-12,32 L-12,30 L-11,30 L-11,29 L-10,29 L-10,28 L-9,28 L-9,27 L-8,27 L-8,25 L-7,25 L-7,24 L-6,24 L-6,22 L-5,22 L-5,21 L-4,21 L-4,20 L-3,20 L-3,18 L-2,18 L-2,17 L-1,17 L-1,16 L0,16 L0,2 L-1,2 L-1,1 L0,1 Z " transform="translate(358,205)" style="fill: #359384;"/><path d="M0,0 L5,0 L5,1 L6,1 L6,2 L7,2 L7,3 L8,3 L8,6 L7,6 L7,8 L6,8 L6,9 L4,9 L4,10 L3,10 L3,11 L0,11 L0,12 L-2,12 L-2,13 L-4,13 L-4,14 L-5,14 L-5,15 L-6,15 L-6,16 L-7,16 L-7,17 L-8,17 L-8,18 L-9,18 L-9,20 L-10,20 L-10,22 L-11,22 L-11,24 L-12,24 L-12,25 L-14,25 L-14,26 L-18,26 L-18,25 L-19,25 L-19,17 L-18,17 L-18,15 L-17,15 L-17,13 L-16,13 L-16,12 L-15,12 L-15,10 L-14,10 L-14,9 L-13,9 L-13,8 L-12,8 L-12,7 L-10,7 L-10,6 L-9,6 L-9,5 L-7,5 L-7,4 L-6,4 L-6,3 L-4,3 L-4,2 L-2,2 L-2,1 L0,1 Z " transform="translate(189,95)" style="fill: #FEF3BB;"/><path d="M0,0 L16,0 L16,1 L15,1 L15,3 L14,3 L14,5 L15,5 L15,6 L17,6 L17,5 L18,5 L18,3 L19,3 L19,1 L22,1 L22,2 L27,2 L27,3 L30,3 L30,9 L33,9 L33,4 L34,4 L34,5 L36,5 L36,6 L39,6 L39,7 L41,7 L41,8 L43,8 L43,9 L45,9 L45,10 L46,10 L46,12 L44,12 L44,13 L34,13 L34,12 L27,12 L27,11 L22,11 L22,10 L18,10 L18,9 L14,9 L14,8 L11,8 L11,7 L8,7 L8,6 L6,6 L6,5 L4,5 L4,4 L2,4 L2,3 L0,3 Z " transform="translate(168,161)" style="fill: #9393C2;"/><path d="M0,0 L4,0 L4,1 L5,1 L5,2 L7,2 L7,3 L8,3 L8,4 L9,4 L9,6 L10,6 L10,7 L11,7 L11,9 L12,9 L12,11 L13,11 L13,13 L14,13 L14,16 L15,16 L15,19 L16,19 L16,25 L15,25 L15,26 L10,26 L10,25 L9,25 L9,24 L8,24 L8,23 L7,23 L7,22 L6,22 L6,21 L5,21 L5,19 L4,19 L4,18 L3,18 L3,16 L2,16 L2,14 L1,14 L1,11 L0,11 L0,8 L-1,8 L-1,1 L0,1 Z " transform="translate(168,44)" style="fill: #F2D027;"/><path d="M0,0 L6,0 L6,1 L9,1 L9,2 L11,2 L11,3 L13,3 L13,4 L14,4 L14,5 L16,5 L16,6 L17,6 L17,7 L18,7 L18,8 L19,8 L19,9 L20,9 L20,10 L21,10 L21,11 L22,11 L22,12 L23,12 L23,13 L24,13 L24,18 L22,18 L22,19 L18,19 L18,18 L15,18 L15,17 L13,17 L13,16 L11,16 L11,15 L9,15 L9,14 L8,14 L8,13 L6,13 L6,12 L5,12 L5,11 L4,11 L4,10 L3,10 L3,9 L2,9 L2,8 L1,8 L1,6 L0,6 L0,5 L-1,5 L-1,1 L0,1 Z " transform="translate(122,82)" style="fill: #F3D027;"/><path d="M0,0 L11,0 L11,1 L12,1 L12,5 L11,5 L11,6 L10,6 L10,7 L9,7 L9,8 L7,8 L7,9 L6,9 L6,10 L4,10 L4,11 L1,11 L1,12 L-2,12 L-2,13 L-14,13 L-14,12 L-15,12 L-15,8 L-14,8 L-14,7 L-13,7 L-13,6 L-12,6 L-12,5 L-11,5 L-11,4 L-9,4 L-9,3 L-7,3 L-7,2 L-5,2 L-5,1 L0,1 Z " transform="translate(274,101)" style="fill: #F8D525;"/><path d="M0,0 L5,0 L5,6 L4,6 L4,9 L3,9 L3,10 L2,10 L2,12 L1,12 L1,13 L0,13 L0,14 L-1,14 L-1,15 L-2,15 L-2,16 L-3,16 L-3,17 L-4,17 L-4,18 L-5,18 L-5,19 L-6,19 L-6,20 L-8,20 L-8,21 L-9,21 L-9,22 L-15,22 L-15,21 L-16,21 L-16,17 L-15,17 L-15,15 L-14,15 L-14,13 L-13,13 L-13,11 L-12,11 L-12,10 L-11,10 L-11,9 L-10,9 L-10,8 L-9,8 L-9,7 L-8,7 L-8,6 L-7,6 L-7,5 L-6,5 L-6,4 L-5,4 L-5,3 L-3,3 L-3,2 L-2,2 L-2,1 L0,1 Z " transform="translate(245,55)" style="fill: #F8D526;"/><path d="M0,0 L3,0 L3,1 L7,1 L7,2 L10,2 L10,6 L9,6 L9,9 L8,9 L8,12 L7,12 L7,16 L6,16 L6,20 L5,20 L5,25 L4,25 L4,27 L2,27 L2,26 L-2,26 L-2,25 L-6,25 L-6,23 L-5,23 L-5,21 L-4,21 L-4,17 L-3,17 L-3,14 L-2,14 L-2,10 L-1,10 L-1,5 L0,5 Z " transform="translate(194,135)" style="fill: #F6D326;"/><path d="M0,0 L1,0 L1,2 L0,2 L0,3 L-1,3 L-1,4 L-2,4 L-2,6 L-3,6 L-3,7 L-4,7 L-4,8 L-5,8 L-5,10 L-6,10 L-6,11 L-7,11 L-7,12 L-8,12 L-8,14 L-9,14 L-9,15 L-10,15 L-10,16 L-11,16 L-11,18 L-12,18 L-12,19 L-13,19 L-13,18 L-17,18 L-17,17 L-22,17 L-22,16 L-26,16 L-26,15 L-31,15 L-31,14 L-37,14 L-37,13 L-43,13 L-43,12 L-50,12 L-50,11 L-57,11 L-57,10 L-70,10 L-70,9 L-101,9 L-101,8 L-61,8 L-61,9 L-51,9 L-51,10 L-44,10 L-44,11 L-38,11 L-38,12 L-32,12 L-32,13 L-27,13 L-27,14 L-22,14 L-22,15 L-12,15 L-12,14 L-11,14 L-11,13 L-10,13 L-10,12 L-9,12 L-9,11 L-8,11 L-8,10 L-7,10 L-7,8 L-6,8 L-6,7 L-5,7 L-5,6 L-4,6 L-4,5 L-3,5 L-3,3 L-2,3 L-2,2 L-1,2 L-1,1 L0,1 Z " transform="translate(285,279)" style="fill: #F5F5F9;"/><path d="M0,0 L1,0 L1,1 L2,1 L2,2 L3,2 L3,3 L5,3 L5,4 L7,4 L7,5 L9,5 L9,6 L11,6 L11,7 L14,7 L14,8 L17,8 L17,9 L21,9 L21,10 L25,10 L25,11 L31,11 L31,12 L45,12 L45,11 L46,11 L46,13 L45,13 L45,14 L44,14 L44,15 L40,15 L40,16 L35,16 L35,15 L28,15 L28,14 L23,14 L23,13 L19,13 L19,12 L16,12 L16,11 L13,11 L13,10 L10,10 L10,9 L7,9 L7,8 L5,8 L5,7 L3,7 L3,6 L2,6 L2,5 L1,5 L1,4 L0,4 Z " transform="translate(161,184)" style="fill: #97A2B6;"/><path d="M0,0 L1,0 L1,1 L2,1 L2,2 L4,2 L4,3 L6,3 L6,4 L9,4 L9,5 L12,5 L12,6 L15,6 L15,7 L19,7 L19,8 L23,8 L23,9 L28,9 L28,10 L33,10 L33,11 L47,11 L47,12 L46,12 L46,13 L44,13 L44,14 L34,14 L34,13 L27,13 L27,12 L22,12 L22,11 L18,11 L18,10 L15,10 L15,9 L12,9 L12,8 L9,8 L9,7 L6,7 L6,6 L4,6 L4,5 L3,5 L3,4 L1,4 L1,3 L0,3 Z " transform="translate(166,167)" style="fill: #9BA6B9;"/><path d="M0,0 L2,0 L2,1 L4,1 L4,2 L7,2 L7,3 L10,3 L10,4 L13,4 L13,5 L17,5 L17,6 L22,6 L22,7 L26,7 L26,8 L37,8 L37,9 L36,9 L36,10 L35,10 L35,11 L23,11 L23,10 L18,10 L18,9 L14,9 L14,8 L10,8 L10,7 L7,7 L7,6 L5,6 L5,5 L3,5 L3,4 L1,4 L1,3 L0,3 Z " transform="translate(169,176)" style="fill: #6C72A3;"/><path d="M0,0 L2,0 L2,1 L5,1 L5,2 L9,2 L9,3 L13,3 L13,4 L18,4 L18,5 L21,5 L21,6 L20,6 L20,7 L19,7 L19,8 L17,8 L17,9 L15,9 L15,10 L7,10 L7,9 L5,9 L5,8 L4,8 L4,7 L3,7 L3,6 L2,6 L2,5 L1,5 L1,3 L0,3 Z " transform="translate(170,204)" style="fill: #5D4B80;"/><path d="M0,0 L2,0 L2,1 L4,1 L4,2 L7,2 L7,3 L10,3 L10,4 L13,4 L13,5 L17,5 L17,6 L22,6 L22,7 L27,7 L27,8 L35,8 L35,10 L32,10 L32,11 L26,11 L26,10 L20,10 L20,9 L16,9 L16,8 L12,8 L12,7 L9,7 L9,6 L6,6 L6,5 L4,5 L4,4 L2,4 L2,3 L1,3 L1,2 L0,2 Z " transform="translate(165,195)" style="fill: #6B71A3;"/><path d="M0,0 L3,0 L3,1 L4,1 L4,2 L5,2 L5,3 L7,3 L7,4 L9,4 L9,5 L11,5 L11,6 L14,6 L14,7 L18,7 L18,8 L22,8 L22,9 L26,9 L26,10 L32,10 L32,11 L40,11 L40,10 L44,10 L44,12 L40,12 L40,13 L32,13 L32,12 L25,12 L25,11 L20,11 L20,10 L17,10 L17,9 L14,9 L14,8 L11,8 L11,7 L8,7 L8,6 L6,6 L6,5 L4,5 L4,4 L3,4 L3,3 L1,3 L1,2 L0,2 Z " transform="translate(163,180)" style="fill: #686EA1;"/><path d="M0,0 L17,0 L17,1 L20,1 L20,2 L24,2 L24,3 L14,3 L14,5 L13,5 L13,4 L5,4 L5,3 L2,3 L2,2 L1,2 L1,1 L0,1 Z " transform="translate(107,127)" style="fill: #414195;"/><path d="M0,0 L4,0 L4,1 L5,1 L5,2 L6,2 L6,3 L7,3 L7,5 L6,5 L6,6 L5,6 L5,7 L4,7 L4,8 L0,8 L0,7 L-1,7 L-1,6 L-2,6 L-2,2 L-1,2 L-1,1 L0,1 Z " transform="translate(201,93)" style="fill: #FEF1AB;"/><path d="M0,0 L4,0 L4,1 L5,1 L5,2 L4,2 L4,3 L2,3 L2,4 L0,4 L0,5 L-2,5 L-2,6 L-3,6 L-3,8 L-4,8 L-4,7 L-5,7 L-5,6 L-6,6 L-6,5 L-5,5 L-5,4 L-4,4 L-4,3 L-3,3 L-3,2 L-2,2 L-2,1 L0,1 Z " transform="translate(213,128)" style="fill: #040371;"/><path d="M0,0 L4,0 L4,1 L3,1 L3,2 L2,2 L2,3 L1,3 L1,4 L0,4 L0,5 L-1,5 L-1,6 L-2,6 L-2,7 L-3,7 L-3,8 L-7,8 L-7,7 L-6,7 L-6,6 L-5,6 L-5,5 L-4,5 L-4,4 L-3,4 L-3,3 L-2,3 L-2,2 L-1,2 L-1,1 L0,1 Z " transform="translate(31,217)" style="fill: #FEFEFE;"/><path d="M0,0 L2,0 L2,1 L3,1 L3,2 L4,2 L4,6 L5,6 L5,8 L3,8 L3,7 L1,7 L1,6 L0,6 L0,5 L-1,5 L-1,4 L-2,4 L-2,3 L-1,3 L-1,1 L0,1 Z " transform="translate(186,122)" style="fill: #F5D326;"/><path d="M0,0 L1,0 L1,1 L2,1 L2,3 L1,3 L1,7 L7,7 L7,8 L6,8 L6,9 L3,9 L3,10 L2,10 L2,12 L1,12 L1,11 L0,11 L0,10 L1,10 L1,9 L0,9 Z " transform="translate(345,186)" style="fill: #4A4C9B;"/><path d="M0,0 L1,0 L1,4 L2,4 L2,5 L3,5 L3,7 L1,7 L1,8 L-1,8 L-1,9 L-3,9 L-3,10 L-5,10 L-5,11 L-7,11 L-7,12 L-8,12 L-8,10 L-6,10 L-6,9 L-4,9 L-4,8 L-2,8 L-2,7 L-1,7 L-1,5 L0,5 Z " transform="translate(217,174)" style="fill: #CAD2E7;"/><path d="M0,0 L5,0 L5,3 L4,3 L4,4 L-3,4 L-3,2 L-2,2 L-2,1 L0,1 Z " transform="translate(213,132)" style="fill: #E5C42B;"/></svg>