<svg id="svg" version="1.1" xmlns="http://www.w3.org/2000/svg" style="display: block;" viewBox="0 0 240 240"><path d="M0,0 L240,0 L240,240 L0,240 Z " transform="translate(0,0)" style="fill: #1CD175;"/><path d="M0,0 L7,0 L7,1 L11,1 L11,2 L14,2 L14,3 L16,3 L16,4 L19,4 L19,5 L21,5 L21,6 L23,6 L23,7 L24,7 L24,8 L26,8 L26,9 L28,9 L28,10 L29,10 L29,11 L31,11 L31,12 L32,12 L32,13 L34,13 L34,12 L38,12 L38,11 L42,11 L42,10 L49,10 L49,9 L77,9 L77,10 L84,10 L84,11 L88,11 L88,12 L92,12 L92,13 L94,13 L94,12 L95,12 L95,11 L97,11 L97,10 L98,10 L98,9 L100,9 L100,8 L102,8 L102,7 L103,7 L103,6 L105,6 L105,5 L107,5 L107,4 L110,4 L110,3 L112,3 L112,2 L115,2 L115,1 L119,1 L119,0 L126,0 L126,3 L127,3 L127,6 L128,6 L128,11 L129,11 L129,25 L128,25 L128,29 L127,29 L127,33 L128,33 L128,34 L129,34 L129,35 L130,35 L130,37 L131,37 L131,38 L132,38 L132,40 L133,40 L133,41 L134,41 L134,43 L135,43 L135,46 L136,46 L136,48 L137,48 L137,52 L138,52 L138,56 L139,56 L139,74 L138,74 L138,81 L137,81 L137,85 L136,85 L136,88 L135,88 L135,91 L134,91 L134,93 L133,93 L133,95 L132,95 L132,97 L131,97 L131,99 L130,99 L130,100 L129,100 L129,102 L128,102 L128,103 L127,103 L127,104 L126,104 L126,105 L125,105 L125,106 L124,106 L124,107 L123,107 L123,108 L122,108 L122,109 L121,109 L121,110 L120,110 L120,111 L118,111 L118,112 L117,112 L117,113 L115,113 L115,114 L114,114 L114,115 L112,115 L112,116 L109,116 L109,117 L107,117 L107,118 L104,118 L104,119 L101,119 L101,120 L96,120 L96,121 L91,121 L91,122 L84,122 L84,124 L85,124 L85,125 L86,125 L86,126 L87,126 L87,127 L88,127 L88,129 L89,129 L89,131 L90,131 L90,133 L91,133 L91,136 L92,136 L92,145 L93,145 L93,182 L94,182 L94,183 L95,183 L95,184 L97,184 L97,185 L100,185 L100,184 L104,184 L104,183 L107,183 L107,182 L109,182 L109,181 L111,181 L111,180 L114,180 L114,179 L116,179 L116,178 L118,178 L118,177 L120,177 L120,176 L122,176 L122,175 L123,175 L123,174 L125,174 L125,173 L127,173 L127,172 L128,172 L128,171 L130,171 L130,170 L131,170 L131,169 L133,169 L133,168 L134,168 L134,167 L135,167 L135,166 L137,166 L137,165 L138,165 L138,164 L139,164 L139,163 L141,163 L141,162 L142,162 L142,161 L143,161 L143,160 L144,160 L144,159 L145,159 L145,158 L146,158 L146,157 L147,157 L147,156 L148,156 L148,155 L149,155 L149,154 L150,154 L150,153 L151,153 L151,152 L152,152 L152,151 L153,151 L153,150 L154,150 L154,149 L155,149 L155,148 L156,148 L156,146 L157,146 L157,145 L158,145 L158,144 L159,144 L159,142 L160,142 L160,141 L161,141 L161,140 L162,140 L162,138 L163,138 L163,137 L164,137 L164,135 L165,135 L165,134 L166,134 L166,132 L167,132 L167,130 L168,130 L168,129 L169,129 L169,127 L170,127 L170,125 L171,125 L171,123 L172,123 L172,121 L173,121 L173,118 L174,118 L174,116 L175,116 L175,114 L176,114 L176,111 L177,111 L177,108 L178,108 L178,105 L179,105 L179,101 L180,101 L180,97 L181,97 L181,92 L182,92 L182,86 L183,86 L183,190 L-57,190 L-57,86 L-56,86 L-56,92 L-55,92 L-55,97 L-54,97 L-54,101 L-53,101 L-53,105 L-52,105 L-52,108 L-51,108 L-51,111 L-50,111 L-50,114 L-49,114 L-49,116 L-48,116 L-48,118 L-47,118 L-47,121 L-46,121 L-46,123 L-45,123 L-45,125 L-44,125 L-44,127 L-43,127 L-43,129 L-42,129 L-42,130 L-41,130 L-41,132 L-40,132 L-40,134 L-39,134 L-39,135 L-38,135 L-38,137 L-37,137 L-37,138 L-36,138 L-36,140 L-35,140 L-35,141 L-34,141 L-34,142 L-33,142 L-33,144 L-32,144 L-32,145 L-31,145 L-31,146 L-30,146 L-30,147 L-29,147 L-29,149 L-28,149 L-28,150 L-27,150 L-27,151 L-26,151 L-26,152 L-25,152 L-25,153 L-24,153 L-24,154 L-23,154 L-23,155 L-22,155 L-22,156 L-21,156 L-21,157 L-20,157 L-20,158 L-19,158 L-19,159 L-18,159 L-18,160 L-17,160 L-17,161 L-16,161 L-16,162 L-14,162 L-14,163 L-13,163 L-13,164 L-12,164 L-12,165 L-11,165 L-11,166 L-9,166 L-9,167 L-8,167 L-8,168 L-7,168 L-7,169 L-5,169 L-5,170 L-4,170 L-4,171 L-2,171 L-2,172 L-1,172 L-1,173 L1,173 L1,174 L3,174 L3,175 L4,175 L4,176 L6,176 L6,177 L8,177 L8,178 L10,178 L10,179 L12,179 L12,180 L15,180 L15,181 L17,181 L17,182 L19,182 L19,183 L22,183 L22,184 L26,184 L26,185 L29,185 L29,184 L31,184 L31,183 L32,183 L32,182 L33,182 L33,155 L31,155 L31,156 L25,156 L25,157 L16,157 L16,156 L10,156 L10,155 L7,155 L7,154 L5,154 L5,153 L3,153 L3,152 L2,152 L2,151 L0,151 L0,150 L-1,150 L-1,149 L-2,149 L-2,148 L-3,148 L-3,147 L-4,147 L-4,145 L-5,145 L-5,144 L-6,144 L-6,142 L-7,142 L-7,140 L-8,140 L-8,137 L-9,137 L-9,135 L-10,135 L-10,134 L-11,134 L-11,132 L-12,132 L-12,131 L-13,131 L-13,129 L-14,129 L-14,128 L-15,128 L-15,127 L-16,127 L-16,126 L-17,126 L-17,125 L-19,125 L-19,124 L-20,124 L-20,123 L-22,123 L-22,122 L-23,122 L-23,121 L-24,121 L-24,120 L-25,120 L-25,119 L-24,119 L-24,118 L-22,118 L-22,117 L-18,117 L-18,118 L-15,118 L-15,119 L-12,119 L-12,120 L-11,120 L-11,121 L-9,121 L-9,122 L-8,122 L-8,123 L-7,123 L-7,124 L-6,124 L-6,125 L-5,125 L-5,126 L-4,126 L-4,127 L-3,127 L-3,129 L-2,129 L-2,130 L-1,130 L-1,132 L0,132 L0,133 L1,133 L1,134 L2,134 L2,136 L3,136 L3,137 L5,137 L5,138 L6,138 L6,139 L7,139 L7,140 L9,140 L9,141 L12,141 L12,142 L16,142 L16,143 L24,143 L24,142 L29,142 L29,141 L32,141 L32,140 L34,140 L34,137 L35,137 L35,133 L36,133 L36,131 L37,131 L37,129 L38,129 L38,127 L39,127 L39,126 L40,126 L40,125 L41,125 L41,124 L42,124 L42,123 L41,123 L41,122 L34,122 L34,121 L29,121 L29,120 L25,120 L25,119 L22,119 L22,118 L19,118 L19,117 L17,117 L17,116 L14,116 L14,115 L12,115 L12,114 L11,114 L11,113 L9,113 L9,112 L7,112 L7,111 L6,111 L6,110 L5,110 L5,109 L4,109 L4,108 L3,108 L3,107 L2,107 L2,106 L1,106 L1,105 L0,105 L0,104 L-1,104 L-1,103 L-2,103 L-2,102 L-3,102 L-3,100 L-4,100 L-4,99 L-5,99 L-5,97 L-6,97 L-6,95 L-7,95 L-7,93 L-8,93 L-8,91 L-9,91 L-9,88 L-10,88 L-10,85 L-11,85 L-11,81 L-12,81 L-12,74 L-13,74 L-13,56 L-12,56 L-12,52 L-11,52 L-11,48 L-10,48 L-10,46 L-9,46 L-9,43 L-8,43 L-8,41 L-7,41 L-7,40 L-6,40 L-6,38 L-5,38 L-5,37 L-4,37 L-4,35 L-3,35 L-3,34 L-2,34 L-2,33 L-1,33 L-1,29 L-2,29 L-2,25 L-3,25 L-3,11 L-2,11 L-2,6 L-1,6 L-1,3 L0,3 Z " transform="translate(57,50)" style="fill: #05386B;"/><path d="M0,0 L104,0 L104,104 L103,104 L103,98 L102,98 L102,93 L101,93 L101,89 L100,89 L100,85 L99,85 L99,82 L98,82 L98,79 L97,79 L97,76 L96,76 L96,74 L95,74 L95,72 L94,72 L94,69 L93,69 L93,67 L92,67 L92,65 L91,65 L91,63 L90,63 L90,61 L89,61 L89,60 L88,60 L88,58 L87,58 L87,56 L86,56 L86,55 L85,55 L85,53 L84,53 L84,52 L83,52 L83,50 L82,50 L82,49 L81,49 L81,48 L80,48 L80,46 L79,46 L79,45 L78,45 L78,44 L77,44 L77,43 L76,43 L76,41 L75,41 L75,40 L74,40 L74,39 L73,39 L73,38 L72,38 L72,37 L71,37 L71,36 L70,36 L70,35 L69,35 L69,34 L68,34 L68,33 L67,33 L67,32 L66,32 L66,31 L65,31 L65,30 L64,30 L64,29 L63,29 L63,28 L61,28 L61,27 L60,27 L60,26 L59,26 L59,25 L58,25 L58,24 L56,24 L56,23 L55,23 L55,22 L54,22 L54,21 L52,21 L52,20 L51,20 L51,19 L49,19 L49,18 L48,18 L48,17 L46,17 L46,16 L44,16 L44,15 L43,15 L43,14 L41,14 L41,13 L39,13 L39,12 L37,12 L37,11 L35,11 L35,10 L32,10 L32,9 L30,9 L30,8 L28,8 L28,7 L25,7 L25,6 L22,6 L22,5 L19,5 L19,4 L15,4 L15,3 L11,3 L11,2 L6,2 L6,1 L0,1 Z " transform="translate(136,0)" style="fill: #05386B;"/><path d="M0,0 L104,0 L104,1 L98,1 L98,2 L93,2 L93,3 L89,3 L89,4 L85,4 L85,5 L82,5 L82,6 L79,6 L79,7 L76,7 L76,8 L74,8 L74,9 L72,9 L72,10 L69,10 L69,11 L67,11 L67,12 L65,12 L65,13 L63,13 L63,14 L61,14 L61,15 L60,15 L60,16 L58,16 L58,17 L56,17 L56,18 L55,18 L55,19 L53,19 L53,20 L52,20 L52,21 L50,21 L50,22 L49,22 L49,23 L48,23 L48,24 L46,24 L46,25 L45,25 L45,26 L44,26 L44,27 L43,27 L43,28 L41,28 L41,29 L40,29 L40,30 L39,30 L39,31 L38,31 L38,32 L37,32 L37,33 L36,33 L36,34 L35,34 L35,35 L34,35 L34,36 L33,36 L33,37 L32,37 L32,38 L31,38 L31,39 L30,39 L30,40 L29,40 L29,41 L28,41 L28,43 L27,43 L27,44 L26,44 L26,45 L25,45 L25,46 L24,46 L24,48 L23,48 L23,49 L22,49 L22,50 L21,50 L21,52 L20,52 L20,53 L19,53 L19,55 L18,55 L18,56 L17,56 L17,58 L16,58 L16,60 L15,60 L15,61 L14,61 L14,63 L13,63 L13,65 L12,65 L12,67 L11,67 L11,69 L10,69 L10,72 L9,72 L9,74 L8,74 L8,76 L7,76 L7,79 L6,79 L6,82 L5,82 L5,85 L4,85 L4,89 L3,89 L3,93 L2,93 L2,98 L1,98 L1,104 L0,104 Z " transform="translate(0,0)" style="fill: #05386B;"/></svg>