<svg id="svg" version="1.1" xmlns="http://www.w3.org/2000/svg" style="display: block;" viewBox="0 0 240 240"><path d="M0,0 L240,0 L240,240 L0,240 Z " transform="translate(0,0)" style="fill: #1BD175;"/><path d="M0,0 L30,0 L30,18 L31,18 L31,16 L32,16 L32,15 L33,15 L33,14 L34,14 L34,12 L35,12 L35,11 L36,11 L36,10 L38,10 L38,9 L39,9 L39,8 L40,8 L40,7 L42,7 L42,6 L44,6 L44,5 L46,5 L46,4 L48,4 L48,3 L51,3 L51,2 L54,2 L54,1 L72,1 L72,2 L75,2 L75,3 L78,3 L78,4 L80,4 L80,5 L82,5 L82,6 L83,6 L83,7 L85,7 L85,8 L86,8 L86,9 L87,9 L87,10 L88,10 L88,11 L89,11 L89,12 L90,12 L90,13 L91,13 L91,14 L92,14 L92,16 L93,16 L93,18 L94,18 L94,19 L95,19 L95,21 L96,21 L96,24 L97,24 L97,27 L98,27 L98,31 L99,31 L99,42 L100,42 L100,110 L70,110 L70,45 L69,45 L69,42 L68,42 L68,40 L67,40 L67,38 L66,38 L66,36 L65,36 L65,35 L64,35 L64,34 L63,34 L63,33 L62,33 L62,32 L60,32 L60,31 L58,31 L58,30 L55,30 L55,29 L47,29 L47,30 L43,30 L43,31 L41,31 L41,32 L39,32 L39,33 L38,33 L38,34 L37,34 L37,35 L36,35 L36,36 L35,36 L35,37 L34,37 L34,39 L33,39 L33,40 L32,40 L32,42 L31,42 L31,46 L30,46 L30,110 L0,110 Z " transform="translate(100,80)" style="fill: #05386B;"/><path d="M0,0 L30,0 L30,110 L0,110 Z " transform="translate(50,80)" style="fill: #05386B;"/><path d="M0,0 L10,0 L10,1 L13,1 L13,2 L14,2 L14,3 L16,3 L16,4 L17,4 L17,5 L18,5 L18,7 L19,7 L19,8 L20,8 L20,10 L21,10 L21,13 L22,13 L22,20 L21,20 L21,23 L20,23 L20,25 L19,25 L19,27 L18,27 L18,28 L17,28 L17,29 L16,29 L16,30 L15,30 L15,31 L13,31 L13,32 L11,32 L11,33 L8,33 L8,34 L2,34 L2,33 L-1,33 L-1,32 L-3,32 L-3,31 L-5,31 L-5,30 L-6,30 L-6,29 L-7,29 L-7,28 L-8,28 L-8,27 L-9,27 L-9,25 L-10,25 L-10,23 L-11,23 L-11,20 L-12,20 L-12,13 L-11,13 L-11,10 L-10,10 L-10,8 L-9,8 L-9,7 L-8,7 L-8,5 L-7,5 L-7,4 L-6,4 L-6,3 L-4,3 L-4,2 L-3,2 L-3,1 L0,1 Z " transform="translate(60,33)" style="fill: #05386B;"/><path d="M0,0 L1,0 L1,40 L-39,40 L-39,39 L-35,39 L-35,38 L-31,38 L-31,37 L-29,37 L-29,36 L-27,36 L-27,35 L-25,35 L-25,34 L-23,34 L-23,33 L-21,33 L-21,32 L-20,32 L-20,31 L-19,31 L-19,30 L-17,30 L-17,29 L-16,29 L-16,28 L-15,28 L-15,27 L-14,27 L-14,26 L-13,26 L-13,25 L-12,25 L-12,24 L-11,24 L-11,23 L-10,23 L-10,22 L-9,22 L-9,20 L-8,20 L-8,19 L-7,19 L-7,18 L-6,18 L-6,16 L-5,16 L-5,14 L-4,14 L-4,12 L-3,12 L-3,10 L-2,10 L-2,8 L-1,8 L-1,4 L0,4 Z " transform="translate(239,200)" style="fill: #05386B;"/><path d="M0,0 L1,0 L1,4 L2,4 L2,8 L3,8 L3,10 L4,10 L4,12 L5,12 L5,14 L6,14 L6,16 L7,16 L7,18 L8,18 L8,19 L9,19 L9,20 L10,20 L10,22 L11,22 L11,23 L12,23 L12,24 L13,24 L13,25 L14,25 L14,26 L15,26 L15,27 L16,27 L16,28 L17,28 L17,29 L18,29 L18,30 L20,30 L20,31 L21,31 L21,32 L22,32 L22,33 L24,33 L24,34 L26,34 L26,35 L28,35 L28,36 L30,36 L30,37 L32,37 L32,38 L36,38 L36,39 L40,39 L40,40 L0,40 Z " transform="translate(0,200)" style="fill: #05386B;"/><path d="M0,0 L40,0 L40,40 L39,40 L39,36 L38,36 L38,32 L37,32 L37,30 L36,30 L36,28 L35,28 L35,26 L34,26 L34,24 L33,24 L33,22 L32,22 L32,21 L31,21 L31,20 L30,20 L30,18 L29,18 L29,17 L28,17 L28,16 L27,16 L27,15 L26,15 L26,14 L25,14 L25,13 L24,13 L24,12 L23,12 L23,11 L22,11 L22,10 L20,10 L20,9 L19,9 L19,8 L18,8 L18,7 L16,7 L16,6 L14,6 L14,5 L12,5 L12,4 L10,4 L10,3 L8,3 L8,2 L4,2 L4,1 L0,1 Z " transform="translate(200,0)" style="fill: #05386B;"/><path d="M0,0 L40,0 L40,1 L36,1 L36,2 L32,2 L32,3 L30,3 L30,4 L28,4 L28,5 L26,5 L26,6 L24,6 L24,7 L22,7 L22,8 L21,8 L21,9 L20,9 L20,10 L18,10 L18,11 L17,11 L17,12 L16,12 L16,13 L15,13 L15,14 L14,14 L14,15 L13,15 L13,16 L12,16 L12,17 L11,17 L11,18 L10,18 L10,20 L9,20 L9,21 L8,21 L8,22 L7,22 L7,24 L6,24 L6,26 L5,26 L5,28 L4,28 L4,30 L3,30 L3,32 L2,32 L2,36 L1,36 L1,40 L0,40 Z " transform="translate(0,0)" style="fill: #05386B;"/></svg>