<svg id="svg" version="1.1" xmlns="http://www.w3.org/2000/svg" style="display: block;" viewBox="0 0 240 240"><path d="M0,0 L240,0 L240,240 L0,240 Z " transform="translate(0,0)" style="fill: #1BD175;"/><path d="M0,0 L144,0 L144,1 L146,1 L146,2 L147,2 L147,3 L149,3 L149,5 L150,5 L150,7 L151,7 L151,11 L152,11 L152,101 L151,101 L151,105 L150,105 L150,107 L149,107 L149,109 L147,109 L147,110 L146,110 L146,111 L144,111 L144,112 L0,112 L0,111 L-2,111 L-2,110 L-3,110 L-3,109 L-5,109 L-5,107 L-6,107 L-6,105 L-7,105 L-7,101 L-8,101 L-8,11 L-7,11 L-7,7 L-6,7 L-6,5 L-5,5 L-5,3 L-3,3 L-3,2 L-2,2 L-2,1 L0,1 Z " transform="translate(48,64)" style="fill: #05386B;"/><path d="M0,0 L1,0 L1,1 L3,1 L3,2 L4,2 L4,3 L6,3 L6,4 L7,4 L7,5 L9,5 L9,6 L10,6 L10,7 L11,7 L11,8 L13,8 L13,9 L14,9 L14,10 L16,10 L16,11 L17,11 L17,12 L19,12 L19,13 L20,13 L20,14 L22,14 L22,15 L23,15 L23,16 L24,16 L24,17 L26,17 L26,18 L27,18 L27,19 L29,19 L29,20 L30,20 L30,21 L32,21 L32,22 L33,22 L33,23 L34,23 L34,24 L36,24 L36,25 L37,25 L37,26 L39,26 L39,27 L40,27 L40,28 L42,28 L42,29 L43,29 L43,30 L45,30 L45,31 L46,31 L46,32 L47,32 L47,33 L49,33 L49,34 L50,34 L50,35 L52,35 L52,36 L53,36 L53,37 L55,37 L55,38 L56,38 L56,39 L58,39 L58,40 L59,40 L59,41 L60,41 L60,42 L62,42 L62,43 L64,43 L64,42 L66,42 L66,41 L67,41 L67,40 L68,40 L68,39 L70,39 L70,38 L71,38 L71,37 L73,37 L73,36 L74,36 L74,35 L76,35 L76,34 L77,34 L77,33 L79,33 L79,32 L80,32 L80,31 L81,31 L81,30 L83,30 L83,29 L84,29 L84,28 L86,28 L86,27 L87,27 L87,26 L89,26 L89,25 L90,25 L90,24 L91,24 L91,23 L93,23 L93,22 L94,22 L94,21 L96,21 L96,20 L97,20 L97,19 L99,19 L99,18 L100,18 L100,17 L102,17 L102,16 L103,16 L103,15 L104,15 L104,14 L106,14 L106,13 L107,13 L107,12 L109,12 L109,11 L110,11 L110,10 L112,10 L112,9 L113,9 L113,8 L114,8 L114,7 L116,7 L116,6 L117,6 L117,5 L119,5 L119,4 L120,4 L120,3 L122,3 L122,2 L123,2 L123,1 L125,1 L125,0 L126,0 L126,78 L0,78 Z " transform="translate(57,92)" style="fill: #1CD175;"/><path d="M0,0 L120,0 L120,1 L118,1 L118,2 L117,2 L117,3 L115,3 L115,4 L114,4 L114,5 L112,5 L112,6 L111,6 L111,7 L110,7 L110,8 L108,8 L108,9 L107,9 L107,10 L105,10 L105,11 L104,11 L104,12 L102,12 L102,13 L101,13 L101,14 L100,14 L100,15 L98,15 L98,16 L97,16 L97,17 L95,17 L95,18 L94,18 L94,19 L92,19 L92,20 L91,20 L91,21 L90,21 L90,22 L88,22 L88,23 L87,23 L87,24 L85,24 L85,25 L84,25 L84,26 L83,26 L83,27 L81,27 L81,28 L80,28 L80,29 L78,29 L78,30 L77,30 L77,31 L75,31 L75,32 L74,32 L74,33 L73,33 L73,34 L71,34 L71,35 L70,35 L70,36 L68,36 L68,37 L67,37 L67,38 L65,38 L65,39 L64,39 L64,40 L63,40 L63,41 L61,41 L61,42 L59,42 L59,41 L57,41 L57,40 L56,40 L56,39 L55,39 L55,38 L53,38 L53,37 L52,37 L52,36 L50,36 L50,35 L49,35 L49,34 L47,34 L47,33 L46,33 L46,32 L44,32 L44,31 L43,31 L43,30 L42,30 L42,29 L40,29 L40,28 L39,28 L39,27 L37,27 L37,26 L36,26 L36,25 L34,25 L34,24 L33,24 L33,23 L32,23 L32,22 L30,22 L30,21 L29,21 L29,20 L27,20 L27,19 L26,19 L26,18 L24,18 L24,17 L23,17 L23,16 L22,16 L22,15 L20,15 L20,14 L19,14 L19,13 L17,13 L17,12 L16,12 L16,11 L14,11 L14,10 L13,10 L13,9 L12,9 L12,8 L10,8 L10,7 L9,7 L9,6 L7,6 L7,5 L6,5 L6,4 L4,4 L4,3 L3,3 L3,2 L2,2 L2,1 L0,1 Z " transform="translate(60,70)" style="fill: #1CD175;"/><path d="M0,0 L1,0 L1,40 L-39,40 L-39,39 L-35,39 L-35,38 L-31,38 L-31,37 L-29,37 L-29,36 L-27,36 L-27,35 L-25,35 L-25,34 L-23,34 L-23,33 L-21,33 L-21,32 L-20,32 L-20,31 L-19,31 L-19,30 L-17,30 L-17,29 L-16,29 L-16,28 L-15,28 L-15,27 L-14,27 L-14,26 L-13,26 L-13,25 L-12,25 L-12,24 L-11,24 L-11,23 L-10,23 L-10,22 L-9,22 L-9,20 L-8,20 L-8,19 L-7,19 L-7,18 L-6,18 L-6,16 L-5,16 L-5,14 L-4,14 L-4,12 L-3,12 L-3,10 L-2,10 L-2,8 L-1,8 L-1,4 L0,4 Z " transform="translate(239,200)" style="fill: #05386B;"/><path d="M0,0 L1,0 L1,4 L2,4 L2,8 L3,8 L3,10 L4,10 L4,12 L5,12 L5,14 L6,14 L6,16 L7,16 L7,18 L8,18 L8,19 L9,19 L9,20 L10,20 L10,22 L11,22 L11,23 L12,23 L12,24 L13,24 L13,25 L14,25 L14,26 L15,26 L15,27 L16,27 L16,28 L17,28 L17,29 L18,29 L18,30 L20,30 L20,31 L21,31 L21,32 L22,32 L22,33 L24,33 L24,34 L26,34 L26,35 L28,35 L28,36 L30,36 L30,37 L32,37 L32,38 L36,38 L36,39 L40,39 L40,40 L0,40 Z " transform="translate(0,200)" style="fill: #05386B;"/><path d="M0,0 L40,0 L40,40 L39,40 L39,36 L38,36 L38,32 L37,32 L37,30 L36,30 L36,28 L35,28 L35,26 L34,26 L34,24 L33,24 L33,22 L32,22 L32,21 L31,21 L31,20 L30,20 L30,18 L29,18 L29,17 L28,17 L28,16 L27,16 L27,15 L26,15 L26,14 L25,14 L25,13 L24,13 L24,12 L23,12 L23,11 L22,11 L22,10 L20,10 L20,9 L19,9 L19,8 L18,8 L18,7 L16,7 L16,6 L14,6 L14,5 L12,5 L12,4 L10,4 L10,3 L8,3 L8,2 L4,2 L4,1 L0,1 Z " transform="translate(200,0)" style="fill: #05386B;"/><path d="M0,0 L40,0 L40,1 L36,1 L36,2 L32,2 L32,3 L30,3 L30,4 L28,4 L28,5 L26,5 L26,6 L24,6 L24,7 L22,7 L22,8 L21,8 L21,9 L20,9 L20,10 L18,10 L18,11 L17,11 L17,12 L16,12 L16,13 L15,13 L15,14 L14,14 L14,15 L13,15 L13,16 L12,16 L12,17 L11,17 L11,18 L10,18 L10,20 L9,20 L9,21 L8,21 L8,22 L7,22 L7,24 L6,24 L6,26 L5,26 L5,28 L4,28 L4,30 L3,30 L3,32 L2,32 L2,36 L1,36 L1,40 L0,40 Z " transform="translate(0,0)" style="fill: #05386B;"/></svg>